<svg width="486" height="593" viewBox="0 0 486 593" fill="none" xmlns="http://www.w3.org/2000/svg">
<path d="M242.573 56.6002C313.997 76.8146 392.159 101.072 431.24 114.548V326.125C431.24 371.944 381.378 452.802 242.573 533.659C103.767 451.454 53.905 371.944 53.905 326.125V114.548C92.9861 99.7243 171.148 76.8146 242.573 56.6002ZM242.573 0C242.573 0 0 68.7289 0 80.8575V326.125C0 450.107 179.234 559.264 229.096 588.912C233.085 591.577 237.775 593 242.573 593C247.37 593 252.06 591.577 256.049 588.912C307.258 560.612 485.145 450.107 485.145 326.125V80.8575C485.145 68.7289 242.573 0 242.573 0Z" fill="#8893FF"/>
<path d="M306.699 421.078L258.536 303.735H320.682C323.723 303.7 326.684 302.942 329.199 301.553C331.714 300.164 333.672 298.207 334.83 295.923C335.988 293.639 336.295 291.13 335.713 288.705C335.131 286.281 333.686 284.049 331.557 282.285L193.284 129.613C187.069 123.304 174.64 129.613 179.301 135.922L227.464 253.265H165.318C162.277 253.3 159.316 254.058 156.801 255.447C154.286 256.836 152.328 258.793 151.17 261.077C150.012 263.361 149.705 265.87 150.287 268.295C150.869 270.719 152.314 272.951 154.443 274.715L292.716 427.387C298.931 433.696 311.36 427.387 306.699 421.078Z" fill="#434EBA"/>
<path d="M26.501 245V94.5L143.501 56.5" stroke="#67697E" stroke-width="53"/>
</svg>
