<svg width="676" height="694" viewBox="0 0 676 694" fill="none" xmlns="http://www.w3.org/2000/svg">
<path fill-rule="evenodd" clip-rule="evenodd" d="M361.359 101.854C371.122 92.0902 386.952 92.0902 396.715 101.853L573.382 278.52C583.145 288.283 583.145 304.111 573.382 313.874C563.619 323.638 547.789 323.638 538.025 313.874L361.359 137.209C351.595 127.446 351.595 111.617 361.359 101.854Z" fill="#67697E"/>
<path fill-rule="evenodd" clip-rule="evenodd" d="M314.072 101.854C323.835 111.617 323.835 127.446 314.072 137.209L137.404 313.874C127.641 323.638 111.812 323.638 102.049 313.874C92.2857 304.111 92.2857 288.283 102.049 278.52L278.715 101.853C288.479 92.0902 304.309 92.0902 314.072 101.854Z" fill="#67697E"/>
<path d="M379.706 693.207H294.372C263.705 693.207 241.039 668.541 246.705 641.874L260.705 580.208H413.706L427.706 641.874C434.039 670.208 412.372 693.207 379.706 693.207Z" fill="#67697E"/>
<path d="M472.379 527.868L413.379 580.201H260.379L201.379 527.868C167.046 499.868 167.046 478.201 193.046 445.201L297.046 313.868C304.379 304.868 312.712 298.534 321.712 295.534C331.379 292.2 342.046 292.2 351.712 295.534C360.712 298.868 369.046 304.868 376.379 313.868L480.379 445.201C506.712 478.201 505.379 498.868 472.379 527.868Z" fill="#434EBA"/>
<path d="M309.366 132.543L283.366 106.542C267.698 90.8751 267.698 65.5434 283.366 49.8767L309.366 23.8757C325.032 8.20907 350.366 8.20907 366.032 23.8757L392.032 49.8767C407.699 65.5434 407.699 90.8751 392.032 106.542L366.032 132.543C350.366 148.209 325.032 148.209 309.366 132.543Z" fill="#818CFF"/>
<path d="M337.688 156.542C324.355 156.542 310.688 151.543 300.688 141.21L274.688 115.209C254.356 94.8752 254.356 61.5426 274.688 40.8759L300.688 14.8753C320.355 -5.12474 355.022 -4.7914 375.022 14.8753L401.022 40.8759C421.355 61.2093 421.355 94.5419 401.022 115.209L375.022 141.21C364.688 151.543 351.022 156.542 337.688 156.542ZM337.688 24.8766C330.688 24.8766 323.688 27.5429 318.355 32.8763L292.355 58.8753C281.688 69.5419 281.688 87.2103 292.355 97.8769L318.355 123.876C329.022 134.542 346.355 134.542 357.355 123.876L383.355 97.8769C394.022 87.2103 394.022 69.8753 383.355 58.8753L357.355 32.8763C351.688 27.5429 344.688 24.8766 337.688 24.8766Z" fill="#818CFF"/>
<path d="M586.028 286.54H622.695C644.695 286.54 662.695 304.541 662.695 326.541V363.204C662.695 385.204 644.695 403.208 622.695 403.208H586.028C564.028 403.208 546.028 385.204 546.028 363.204V326.541C546.028 304.541 564.028 286.54 586.028 286.54Z" fill="#818CFF"/>
<path d="M622.665 415.878H585.999C556.999 415.878 533.332 392.211 533.332 363.211V326.544C533.332 297.544 556.999 273.877 585.999 273.877H622.665C651.665 273.877 675.332 297.544 675.332 326.544V363.211C674.999 392.211 651.665 415.878 622.665 415.878ZM585.999 299.211C570.665 299.211 558.332 311.544 558.332 326.878V363.544C558.332 378.878 570.665 391.211 585.999 391.211H622.665C637.999 391.211 650.332 378.878 650.332 363.544V326.878C650.332 311.544 637.999 299.211 622.665 299.211H585.999Z" fill="#818CFF"/>
<path d="M89.362 286.54H52.6953C30.6953 286.54 12.6953 304.541 12.6953 326.541V363.204C12.6953 385.204 30.6953 403.208 52.6953 403.208H89.362C111.362 403.208 129.362 385.204 129.362 363.204V326.541C129.362 304.541 111.362 286.54 89.362 286.54Z" fill="#818CFF"/>
<path d="M89.3333 415.878H52.6663C23.6663 415.878 0 392.211 0 363.211V326.544C0 297.544 23.6663 273.877 52.6663 273.877H89.3333C118.333 273.877 142 297.544 142 326.544V363.211C141.666 392.211 118.333 415.878 89.3333 415.878ZM52.6663 299.211C37.333 299.211 25 311.544 25 326.878V363.544C25 378.878 37.333 391.211 52.6663 391.211H89.3333C104.667 391.211 117 378.878 117 363.544V326.878C117 311.544 104.667 299.211 89.3333 299.211H52.6663Z" fill="#818CFF"/>
</svg>
