<svg width="668" height="582" viewBox="0 0 668 582" fill="none" xmlns="http://www.w3.org/2000/svg">
<path d="M93.3372 354.383C110.52 337.2 110.52 309.341 93.3372 292.158C76.1543 274.975 48.2953 274.975 31.1124 292.158C13.9295 309.341 13.9295 337.2 31.1124 354.383C48.2953 371.565 76.1543 371.565 93.3372 354.383Z" fill="#8893FF"/>
<path d="M624.471 366.145C648.12 360.561 662.765 336.862 657.181 313.213C651.596 289.564 627.898 274.919 604.249 280.504C580.599 286.088 565.955 309.786 571.539 333.436C577.123 357.085 600.822 371.729 624.471 366.145Z" fill="#8893FF"/>
<path d="M581.079 242.667H543.746C543.746 129.333 451.746 37.3333 338.413 37.3333C225.079 37.3333 133.079 129.333 133.079 242.667H95.7461C95.7461 108.667 204.413 0 338.413 0C472.413 0 581.079 108.667 581.079 242.667Z" fill="#67697E"/>
<path d="M400.412 566.667C384.412 566.667 373.745 566 372.412 566L373.745 551.333C375.079 551.333 526.412 562.667 544.412 500C564.412 430.667 554.412 357.333 554.412 356.667L569.079 354.667C569.745 357.333 579.745 431.333 558.412 504C541.745 559.333 448.412 566.667 400.412 566.667Z" fill="#67697E"/>
<path d="M407.079 581.333H339.746C333.746 581.333 329.079 576.667 329.079 570.667V544C329.079 538 333.746 533.333 339.746 533.333H407.079C413.079 533.333 417.746 538 417.746 544V570.667C417.746 576.667 413.079 581.333 407.079 581.333Z" fill="#434EBA"/>
<path d="M452.413 374.667H338.413L255.746 424C252.413 426 248.413 422.667 249.079 419.333L261.079 374.667H224.413C214.413 374.667 205.746 366 205.746 356V213.333C205.746 203.333 214.413 194.667 224.413 194.667H451.746C461.746 194.667 470.413 203.333 470.413 213.333V356.667C471.079 366.667 462.413 374.667 452.413 374.667Z" fill="#67697E"/>
<path d="M338.412 270.667C330.412 270.667 324.412 277.333 324.412 284.667C324.412 292 331.079 298.667 338.412 298.667C346.412 298.667 352.412 292 352.412 284.667C352.412 277.333 346.412 270.667 338.412 270.667Z" fill="white"/>
<path d="M281.079 270.667C273.079 270.667 267.079 277.333 267.079 284.667C267.079 292 273.746 298.667 281.079 298.667C289.079 298.667 295.079 292 295.079 284.667C295.079 277.333 289.079 270.667 281.079 270.667Z" fill="white"/>
<path d="M395.746 270.667C387.746 270.667 381.746 277.333 381.746 284.667C381.746 292 388.413 298.667 395.746 298.667C403.746 298.667 409.746 292 409.746 284.667C409.746 277.333 403.746 270.667 395.746 270.667Z" fill="white"/>
<path d="M135.745 230H77.0788C59.0788 230 44.4121 244.667 44.4121 262.667V393.333C44.4121 411.333 59.0788 426 77.0788 426H135.745C148.412 426 158.412 416 158.412 403.333V252C157.745 240 147.745 230 135.745 230Z" fill="#434EBA"/>
<path d="M599.745 230H541.079C528.412 230 518.412 240 518.412 252.667V403.333C518.412 416 528.412 426 541.079 426H599.745C617.745 426 632.412 411.333 632.412 393.333V262C632.412 244 617.745 230 599.745 230Z" fill="#434EBA"/>
</svg>
