<svg width="594" height="729" viewBox="0 0 594 729" fill="none" xmlns="http://www.w3.org/2000/svg">
<path d="M193.667 32.001H133.333C127.773 32.0126 122.305 33.4147 117.425 36.0796C112.546 38.7445 108.411 42.5875 105.396 47.2589C102.381 51.9302 100.582 57.2815 100.164 62.8255C99.7454 68.3695 100.72 73.9301 103 79.001L223.667 349.668C246.393 338.126 271.51 332.075 297 332.001C316.379 332.096 335.579 335.71 353.667 342.668L224.333 51.6677C221.681 45.7675 217.37 40.7664 211.924 37.2742C206.479 33.7821 200.135 31.9499 193.667 32.001Z" fill="#67697E"/>
<path d="M400.333 32.001H460.666C466.226 32.0126 471.695 33.4147 476.574 36.0796C481.454 38.7445 485.589 42.5875 488.604 47.2589C491.619 51.9302 493.417 57.2815 493.836 62.8255C494.254 68.3695 493.279 73.9301 491 79.001L370.333 349.668C347.606 338.126 322.489 332.075 297 332.001C277.621 332.096 258.42 335.71 240.333 342.668L369.666 51.6677C372.318 45.7675 376.63 40.7664 382.075 37.2742C387.521 33.7821 393.864 31.9499 400.333 32.001Z" fill="#434EBA"/>
<path d="M297 698.668C407.457 698.668 497 609.125 497 498.668C497 388.211 407.457 298.668 297 298.668C186.543 298.668 97 388.211 97 498.668C97 609.125 186.543 698.668 297 698.668Z" fill="#8893FF"/>
<path d="M297 548.668C324.614 548.668 347 526.282 347 498.668C347 471.053 324.614 448.668 297 448.668C269.386 448.668 247 471.053 247 498.668C247 526.282 269.386 548.668 297 548.668Z" fill="#434EBA"/>
</svg>
