<svg width="52" height="52" viewBox="0 0 52 52" fill="none" xmlns="http://www.w3.org/2000/svg">
<g clip-path="url(#clip0_18_668)">
<path fill-rule="evenodd" clip-rule="evenodd" d="M28.932 0.761124C27.9162 -0.253708 26.2718 -0.253708 25.2587 0.761124C24.2429 1.77598 24.2429 3.41781 25.2587 4.43007L41.9886 21.1688C42.8069 21.9864 42.2277 23.4032 41.0716 23.4032H2.64197C1.20798 23.4032 0 24.5464 0 25.9791V25.9892C0 27.422 1.20798 28.5943 2.64197 28.5943H41.0716C42.2277 28.5943 42.8069 29.973 41.9886 30.7906L25.1781 47.5789C24.1624 48.5911 24.1624 50.2279 25.1781 51.2428C26.1913 52.255 27.8357 52.2525 28.8514 51.2377L50.4783 29.6303C52.5072 27.6032 52.5072 24.3144 50.4783 22.2873C50.0081 21.8201 28.4618 0.291356 28.932 0.761124Z" fill="#79945E"/>
</g>
<defs>
<clipPath id="clip0_18_668">
<rect width="52" height="52" fill="white"/>
</clipPath>
</defs>
</svg>
