<svg width="52" height="52" viewBox="0 0 52 52" fill="none" xmlns="http://www.w3.org/2000/svg">
<g clip-path="url(#clip0_18_673)">
<path fill-rule="evenodd" clip-rule="evenodd" d="M23.068 0.761124C24.0838 -0.253708 25.7282 -0.253708 26.7413 0.761124C27.7571 1.77598 27.7571 3.41781 26.7413 4.43007L10.0114 21.1688C9.19305 21.9864 9.77233 23.4032 10.9284 23.4032H49.358C50.792 23.4032 52 24.5464 52 25.9791V25.9892C52 27.422 50.792 28.5943 49.358 28.5943H10.9284C9.77233 28.5943 9.19305 29.973 10.0114 30.7906L26.8219 47.5789C27.8376 48.5911 27.8376 50.2279 26.8219 51.2428C25.8087 52.255 24.1643 52.2525 23.1486 51.2377L1.52169 29.6303C-0.50721 27.6032 -0.50721 24.3144 1.52169 22.2873C1.9919 21.8201 23.5382 0.291356 23.068 0.761124Z" fill="#79945E"/>
</g>
<defs>
<clipPath id="clip0_18_673">
<rect width="52" height="52" fill="white" transform="matrix(-1 0 0 1 52 0)"/>
</clipPath>
</defs>
</svg>
