<svg width="100" height="86" viewBox="0 0 100 86" fill="none" xmlns="http://www.w3.org/2000/svg">
<path fill-rule="evenodd" clip-rule="evenodd" d="M12.2508 11.5617C9.08988 14.4967 6.97297 19.2591 6.97297 26.7297V59.2703C6.97297 66.7406 9.08988 71.5032 12.2508 74.4383C15.4584 77.4167 20.2912 79.027 26.7297 79.027H73.2162C79.6546 79.027 84.4873 77.4167 87.6954 74.4383C90.856 71.5032 92.973 66.7406 92.973 59.2703V26.7297C92.973 19.2591 90.856 14.4967 87.6954 11.5617C84.4873 8.58313 79.6546 6.97297 73.2162 6.97297H26.7297C20.2912 6.97297 15.4584 8.58313 12.2508 11.5617ZM7.50599 6.45186C12.4335 1.87633 19.2223 0 26.7297 0H73.2162C80.7238 0 87.5127 1.87633 92.4398 6.45186C97.4143 11.0708 99.946 17.9301 99.946 26.7297V59.2703C99.946 68.0702 97.4143 74.9292 92.4398 79.5481C87.5127 84.1238 80.7238 86 73.2162 86H26.7297C19.2223 86 12.4335 84.1238 7.50599 79.5481C2.53175 74.9292 0 68.0702 0 59.2703V26.7297C0 17.9301 2.53175 11.0708 7.50599 6.45186Z" fill="#B2C89C"/>
<path fill-rule="evenodd" clip-rule="evenodd" d="M84.2023 21.1991C85.3798 22.7228 85.0991 24.9124 83.5757 26.0897L57.7892 46.0152C53.1852 49.5724 46.7603 49.5724 42.1562 46.0152L16.3699 26.0897C14.8462 24.9124 14.5655 22.7228 15.7429 21.1991C16.9202 19.6754 19.1098 19.3947 20.6335 20.5721L46.4195 40.4973C48.5123 42.1145 51.4331 42.1145 53.5254 40.4973L79.312 20.5721C80.8358 19.3947 83.0253 19.6754 84.2023 21.1991Z" fill="#B2C89C"/>
</svg>
