<svg width="358" height="352" viewBox="0 0 358 352" fill="none" xmlns="http://www.w3.org/2000/svg">
<path fill-rule="evenodd" clip-rule="evenodd" d="M244.379 351.411H237.011C236.211 320.801 235.2 276.843 234.653 240.296L283.747 239.327L293.095 184.59L234.4 188.801C235.453 144.084 243.747 135.663 272.8 135.663C281.895 135.663 291.242 135.663 297.432 135.663V78.7368C281.256 76.5991 264.947 75.6282 248.632 75.8316C188.842 75.8316 170.189 113.179 170.189 187.243V192.885L140 194.948L139.579 242.106L170.063 241.517C170.063 280.422 169.726 321.517 169.6 350.317C143.874 349.769 118.484 349.222 98.0211 349.222C20.9263 349.222 0 303.622 0 245.643C0 187.664 1.13683 123.537 1.13683 101.558C1.13683 36.4211 29.9789 0.252637 101.474 0.252637C127.916 0.252637 227.368 0 261.221 0C326.274 0 357.474 26.8631 357.474 105.516C357.474 124.926 356.042 161.264 356.042 262.022C355.916 325.39 325.979 351.411 244.379 351.411Z" fill="#B2C89C"/>
</svg>
