<svg width="182" height="182" viewBox="0 0 182 182" fill="none" xmlns="http://www.w3.org/2000/svg">
<path d="M90.9997 106.996C99.8154 106.996 107.031 99.8157 107.031 90.9645C107.031 87.4809 105.894 84.2461 104.01 81.6157C101.095 77.5989 96.3673 74.9329 91.0353 74.9329C85.7033 74.9329 80.9755 77.5633 78.0607 81.6157C76.1767 84.2461 75.0392 87.4809 75.0392 90.9645C75.0036 99.8157 82.1841 106.996 90.9997 106.996Z" fill="#8893FF"/>
<path d="M125.978 71.4137V57.977V55.9863H123.987L110.551 56.0219L110.622 71.4492L125.978 71.4137Z" fill="#8893FF"/>
<path d="M136.5 0H45.5C0 0 0 37.6086 0 45.4644V136.5C0 182 37.6441 182 45.5 182H136.5C182 182 182 144.356 182 136.5V45.4644C182 5.16461 139.75 0 136.5 0ZM136.5 81.6512V118.904C136.5 128.609 128.609 136.5 118.904 136.5H63.0957C53.3914 136.5 45.5 128.609 45.5 118.904V81.6512V63.0601C45.5 53.3559 53.3914 45.4644 63.0957 45.4644H118.904C128.609 45.4644 136.5 53.3559 136.5 63.0601V81.6512Z" fill="#8893FF"/>
<path d="M115.883 90.9999C115.883 104.721 104.721 115.883 91 115.883C77.2789 115.883 66.1172 104.721 66.1172 90.9999C66.1172 87.6941 66.7926 84.5304 67.9656 81.6511H54.3867V118.904C54.3867 123.703 58.2969 127.613 63.0957 127.613H118.904C123.703 127.613 127.613 123.703 127.613 118.904V81.6511H114.034C115.243 84.5304 115.883 87.6941 115.883 90.9999Z" fill="#8893FF"/>
</svg>
