<svg width="1706" height="960" viewBox="0 0 1706 960" fill="none" xmlns="http://www.w3.org/2000/svg">
<g clip-path="url(#clip0_7_139)">
<path d="M894.939 516.622L1053.63 557.511L957.137 446.933L894.939 516.622Z" fill="#CFD5C8" stroke="#CFD5C8" stroke-linejoin="bevel"/>
<path d="M1053.63 557.511L1096.28 402.489L957.137 446.933L1053.63 557.511Z" fill="#CCD3C5" stroke="#CCD3C5" stroke-linejoin="bevel"/>
<path d="M894.939 516.622L891.385 696.356L1053.63 557.511L894.939 516.622Z" fill="#E6E9E2" stroke="#E6E9E2" stroke-linejoin="bevel"/>
<path d="M1240.76 630.578L1178.56 532.622L1053.63 557.511L1240.76 630.578Z" fill="#DCE0D6" stroke="#DCE0D6" stroke-linejoin="bevel"/>
<path d="M1053.63 557.511L1178.56 532.622L1096.28 402.489L1053.63 557.511Z" fill="#E3E7DF" stroke="#E3E7DF" stroke-linejoin="bevel"/>
<path d="M957.137 446.933L777.296 400.711L894.939 516.622L957.137 446.933Z" fill="#E3E7DF" stroke="#E3E7DF" stroke-linejoin="bevel"/>
<path d="M894.939 516.622L723.984 566.4L891.385 696.356L894.939 516.622Z" fill="#E3E7DF" stroke="#E3E7DF" stroke-linejoin="bevel"/>
<path d="M894.939 270.756L777.296 400.711L957.137 446.933L894.939 270.756Z" fill="#CCD3C5" stroke="#CCD3C5" stroke-linejoin="bevel"/>
<path d="M891.385 696.356L1066.07 747.911L1053.63 557.511L891.385 696.356Z" fill="#D4DACD" stroke="#D4DACD" stroke-linejoin="bevel"/>
<path d="M891.385 696.356L948.252 771.378L1066.07 747.911L891.385 696.356Z" fill="#E1E5DC" stroke="#E1E5DC" stroke-linejoin="bevel"/>
<path d="M777.296 400.711L723.984 566.4L894.939 516.622L777.296 400.711Z" fill="#D1D7CB" stroke="#D1D7CB" stroke-linejoin="bevel"/>
<path d="M891.385 696.356L789.736 773.156L948.252 771.378L891.385 696.356Z" fill="#CCD3C5" stroke="#CCD3C5" stroke-linejoin="bevel"/>
<path d="M1178.56 532.622L1206.99 409.6L1096.28 402.489L1178.56 532.622Z" fill="#E6E9E2" stroke="#E6E9E2" stroke-linejoin="bevel"/>
<path d="M1137.16 268.978L894.939 270.756L1096.28 402.489L1137.16 268.978Z" fill="#CFD5C8" stroke="#CFD5C8" stroke-linejoin="bevel"/>
<path d="M1096.28 402.489L894.939 270.756L957.137 446.933L1096.28 402.489Z" fill="#D1D7CB" stroke="#D1D7CB" stroke-linejoin="bevel"/>
<path d="M723.984 566.4L716.875 639.467L891.385 696.356L723.984 566.4Z" fill="#D1D7CB" stroke="#D1D7CB" stroke-linejoin="bevel"/>
<path d="M1066.07 747.911L1240.76 630.578L1053.63 557.511L1066.07 747.911Z" fill="#E1E5DC" stroke="#E1E5DC" stroke-linejoin="bevel"/>
<path d="M1178.56 532.622L1335.48 564.622L1206.99 409.6L1178.56 532.622Z" fill="#DCE0D6" stroke="#DCE0D6" stroke-linejoin="bevel"/>
<path d="M1206.99 409.6L1137.16 268.978L1096.28 402.489L1206.99 409.6Z" fill="#E1E5DC" stroke="#E1E5DC" stroke-linejoin="bevel"/>
<path d="M716.875 639.467L789.736 773.156L891.385 696.356L716.875 639.467Z" fill="#DEE2D9" stroke="#DEE2D9" stroke-linejoin="bevel"/>
<path d="M680.801 331.2L666.584 402.489L777.296 400.711L680.801 331.2Z" fill="#DCE0D6" stroke="#DCE0D6" stroke-linejoin="bevel"/>
<path d="M777.296 400.711L666.584 402.489L723.984 566.4L777.296 400.711Z" fill="#D6DCD0" stroke="#D6DCD0" stroke-linejoin="bevel"/>
<path d="M723.984 566.4L639.928 605.511L716.875 639.467L723.984 566.4Z" fill="#D4DACD" stroke="#D4DACD" stroke-linejoin="bevel"/>
<path d="M666.584 402.489L639.928 605.511L723.984 566.4L666.584 402.489Z" fill="#D4DACD" stroke="#D4DACD" stroke-linejoin="bevel"/>
<path d="M716.875 639.467L631.042 717.689L789.736 773.156L716.875 639.467Z" fill="#CCD3C5" stroke="#CCD3C5" stroke-linejoin="bevel"/>
<path d="M761.303 217.422L680.801 331.2L777.296 400.711L761.303 217.422Z" fill="#D1D7CB" stroke="#D1D7CB" stroke-linejoin="bevel"/>
<path d="M1240.76 630.578L1335.48 564.622L1178.56 532.622L1240.76 630.578Z" fill="#D9DED3" stroke="#D9DED3" stroke-linejoin="bevel"/>
<path d="M1206.99 409.6L1283.41 297.422L1137.16 268.978L1206.99 409.6Z" fill="#D9DED3" stroke="#D9DED3" stroke-linejoin="bevel"/>
<path d="M825.277 76.6222L761.302 217.422L894.939 270.756L825.277 76.6222Z" fill="#E6E9E2" stroke="#E6E9E2" stroke-linejoin="bevel"/>
<path d="M894.939 270.756L761.302 217.422L777.296 400.711L894.939 270.756Z" fill="#D1D7CB" stroke="#D1D7CB" stroke-linejoin="bevel"/>
<path d="M948.252 771.378L1137.16 872.711L1066.07 747.911L948.252 771.378Z" fill="#DCE0D6" stroke="#DCE0D6" stroke-linejoin="bevel"/>
<path d="M1066.07 747.911L1240.76 851.378V630.578L1066.07 747.911Z" fill="#CCD3C5" stroke="#CCD3C5" stroke-linejoin="bevel"/>
<path d="M1240.76 630.578L1376.35 699.911L1335.48 564.622L1240.76 630.578Z" fill="#DCE0D6" stroke="#DCE0D6" stroke-linejoin="bevel"/>
<path d="M941.143 960L1137.16 872.711L948.252 771.378L941.143 960Z" fill="#D1D7CB" stroke="#D1D7CB" stroke-linejoin="bevel"/>
<path d="M1403.01 379.378L1283.41 297.422L1206.99 409.6L1403.01 379.378Z" fill="#DCE0D6" stroke="#DCE0D6" stroke-linejoin="bevel"/>
<path d="M639.928 605.511L631.042 717.689L716.875 639.467L639.928 605.511Z" fill="#CFD5C8" stroke="#CFD5C8" stroke-linejoin="bevel"/>
<path d="M1137.16 872.711L1240.76 851.378L1066.07 747.911L1137.16 872.711Z" fill="#D6DCD0" stroke="#D6DCD0" stroke-linejoin="bevel"/>
<path d="M1144.26 115.733L967.8 96.1778L1137.16 268.978L1144.26 115.733Z" fill="#DCE0D6" stroke="#DCE0D6" stroke-linejoin="bevel"/>
<path d="M1137.16 268.978L967.8 96.1778L894.939 270.756L1137.16 268.978Z" fill="#E3E7DF" stroke="#E3E7DF" stroke-linejoin="bevel"/>
<path d="M789.736 960H941.143L789.736 773.156V960Z" fill="#D4DACD" stroke="#D4DACD" stroke-linejoin="bevel"/>
<path d="M789.736 773.155L941.143 960L948.252 771.378L789.736 773.155Z" fill="#E3E7DF" stroke="#E3E7DF" stroke-linejoin="bevel"/>
<path d="M1137.16 872.711L1301.18 960L1240.76 851.378L1137.16 872.711Z" fill="#D9DED3" stroke="#D9DED3" stroke-linejoin="bevel"/>
<path d="M1240.76 851.378L1376.35 699.911L1240.76 630.578V851.378Z" fill="#D4DACD" stroke="#D4DACD" stroke-linejoin="bevel"/>
<path d="M1335.48 564.622L1403.01 379.378L1206.99 409.6L1335.48 564.622Z" fill="#D6DCD0" stroke="#D6DCD0" stroke-linejoin="bevel"/>
<path d="M1286.96 199.289L1144.26 115.733L1137.16 268.978L1286.96 199.289Z" fill="#CFD5C8" stroke="#CFD5C8" stroke-linejoin="bevel"/>
<path d="M486.565 696.356L609.717 778.489L631.042 717.689L486.565 696.356Z" fill="#D4DACD" stroke="#D4DACD" stroke-linejoin="bevel"/>
<path d="M631.042 717.689L609.717 778.489L789.736 773.156L631.042 717.689Z" fill="#DCE0D6" stroke="#DCE0D6" stroke-linejoin="bevel"/>
<path d="M486.565 696.356L631.042 717.689L639.928 605.511L486.565 696.356Z" fill="#CCD3C5" stroke="#CCD3C5" stroke-linejoin="bevel"/>
<path d="M941.143 960H1101.61L1137.16 872.711L941.143 960Z" fill="#DCE0D6" stroke="#DCE0D6" stroke-linejoin="bevel"/>
<path d="M1572.19 404.267L1403.01 379.378L1586.4 559.289L1572.19 404.267Z" fill="#CCD3C5" stroke="#CCD3C5" stroke-linejoin="bevel"/>
<path d="M1283.41 297.422L1286.96 199.289L1137.16 268.978L1283.41 297.422Z" fill="#D4DACD" stroke="#D4DACD" stroke-linejoin="bevel"/>
<path d="M1411.89 265.422L1286.96 199.289L1283.41 297.422L1411.89 265.422Z" fill="#CFD5C8" stroke="#CFD5C8" stroke-linejoin="bevel"/>
<path d="M609.717 778.489L789.736 960V773.156L609.717 778.489Z" fill="#D9DED3" stroke="#D9DED3" stroke-linejoin="bevel"/>
<path d="M967.8 96.1777L825.277 76.6222L894.939 270.756L967.8 96.1777Z" fill="#CFD5C8" stroke="#CFD5C8" stroke-linejoin="bevel"/>
<path d="M761.303 217.422L634.596 165.511L680.801 331.2L761.303 217.422Z" fill="#E6E9E2" stroke="#E6E9E2" stroke-linejoin="bevel"/>
<path d="M884.277 0L825.277 76.6222L967.8 96.1778L884.277 0Z" fill="#E3E7DF" stroke="#E3E7DF" stroke-linejoin="bevel"/>
<path d="M1240.76 851.378L1413.67 758.933L1376.35 699.911L1240.76 851.378Z" fill="#D9DED3" stroke="#D9DED3" stroke-linejoin="bevel"/>
<path d="M1376.35 699.911L1525.98 687.467L1335.48 564.622L1376.35 699.911Z" fill="#E3E7DF" stroke="#E3E7DF" stroke-linejoin="bevel"/>
<path d="M1355.03 960L1413.67 758.933L1240.76 851.378L1355.03 960Z" fill="#CCD3C5" stroke="#CCD3C5" stroke-linejoin="bevel"/>
<path d="M825.278 76.6222L634.596 165.511L761.303 217.422L825.278 76.6222Z" fill="#CCD3C5" stroke="#CCD3C5" stroke-linejoin="bevel"/>
<path d="M680.801 331.2L467.017 381.155L666.584 402.489L680.801 331.2Z" fill="#E6E9E2" stroke="#E6E9E2" stroke-linejoin="bevel"/>
<path d="M666.584 402.489L467.017 585.956L639.928 605.511L666.584 402.489Z" fill="#D9DED3" stroke="#D9DED3" stroke-linejoin="bevel"/>
<path d="M1572.19 404.267L1411.89 265.422L1403.01 379.378L1572.19 404.267Z" fill="#E3E7DF" stroke="#E3E7DF" stroke-linejoin="bevel"/>
<path d="M1403.01 379.378L1411.89 265.422L1283.41 297.422L1403.01 379.378Z" fill="#CFD5C8" stroke="#CFD5C8" stroke-linejoin="bevel"/>
<path d="M1297.63 0H1147.82L1144.26 115.733L1297.63 0Z" fill="#DEE2D9" stroke="#DEE2D9" stroke-linejoin="bevel"/>
<path d="M467.017 381.156V585.956L666.584 402.489L467.017 381.156Z" fill="#D4DACD" stroke="#D4DACD" stroke-linejoin="bevel"/>
<path d="M467.017 585.956L486.565 696.356L639.928 605.511L467.017 585.956Z" fill="#E6E9E2" stroke="#E6E9E2" stroke-linejoin="bevel"/>
<path d="M609.717 778.489L599.055 960H789.736L609.717 778.489Z" fill="#D6DCD0" stroke="#D6DCD0" stroke-linejoin="bevel"/>
<path d="M502.559 151.289L467.017 381.155L680.801 331.2L502.559 151.289Z" fill="#CCD3C5" stroke="#CCD3C5" stroke-linejoin="bevel"/>
<path d="M1411.89 265.422L1390.57 188.622L1286.96 199.289L1411.89 265.422Z" fill="#E3E7DF" stroke="#E3E7DF" stroke-linejoin="bevel"/>
<path d="M1147.82 0L967.8 96.1778L1144.26 115.733L1147.82 0Z" fill="#E3E7DF" stroke="#E3E7DF" stroke-linejoin="bevel"/>
<path d="M1147.82 0H884.277L967.8 96.1778L1147.82 0Z" fill="#E6E9E2" stroke="#E6E9E2" stroke-linejoin="bevel"/>
<path d="M825.277 76.6222L632.819 0L634.596 165.511L825.277 76.6222Z" fill="#E1E5DC" stroke="#E1E5DC" stroke-linejoin="bevel"/>
<path d="M1101.61 960H1301.18L1137.16 872.711L1101.61 960Z" fill="#CCD3C5" stroke="#CCD3C5" stroke-linejoin="bevel"/>
<path d="M1297.63 0L1144.26 115.733L1286.96 199.289L1297.63 0Z" fill="#CFD5C8" stroke="#CFD5C8" stroke-linejoin="bevel"/>
<path d="M884.277 0H791.513L825.277 76.6222L884.277 0Z" fill="#D4DACD" stroke="#D4DACD" stroke-linejoin="bevel"/>
<path d="M1563.3 808.711L1525.98 687.467L1413.67 758.933L1563.3 808.711Z" fill="#E6E9E2" stroke="#E6E9E2" stroke-linejoin="bevel"/>
<path d="M1413.67 758.933L1525.98 687.467L1376.35 699.911L1413.67 758.933Z" fill="#CFD5C8" stroke="#CFD5C8" stroke-linejoin="bevel"/>
<path d="M507.89 960H599.055L609.717 778.489L507.89 960Z" fill="#D6DCD0" stroke="#D6DCD0" stroke-linejoin="bevel"/>
<path d="M1301.18 960H1355.03L1240.76 851.378L1301.18 960Z" fill="#D9DED3" stroke="#D9DED3" stroke-linejoin="bevel"/>
<path d="M297.661 742.578L465.24 806.933L486.565 696.356L297.661 742.578Z" fill="#CFD5C8" stroke="#CFD5C8" stroke-linejoin="bevel"/>
<path d="M486.565 696.356L465.24 806.933L609.717 778.489L486.565 696.356Z" fill="#D1D7CB" stroke="#D1D7CB" stroke-linejoin="bevel"/>
<path d="M326.095 596.622L486.565 696.356L467.017 585.956L326.095 596.622Z" fill="#D1D7CB" stroke="#D1D7CB" stroke-linejoin="bevel"/>
<path d="M632.819 0L502.559 151.289L634.596 165.511L632.819 0Z" fill="#DCE0D6" stroke="#DCE0D6" stroke-linejoin="bevel"/>
<path d="M634.596 165.511L502.559 151.289L680.801 331.2L634.596 165.511Z" fill="#D4DACD" stroke="#D4DACD" stroke-linejoin="bevel"/>
<path d="M1586.4 559.289L1403.01 379.378L1335.48 564.622L1586.4 559.289Z" fill="#E1E5DC" stroke="#E1E5DC" stroke-linejoin="bevel"/>
<path d="M1411.89 265.422L1543.75 135.289L1390.57 188.622L1411.89 265.422Z" fill="#E6E9E2" stroke="#E6E9E2" stroke-linejoin="bevel"/>
<path d="M1525.98 687.467L1586.4 559.289L1335.48 564.622L1525.98 687.467Z" fill="#DEE2D9" stroke="#DEE2D9" stroke-linejoin="bevel"/>
<path d="M1401.23 0H1297.63L1390.57 188.622L1401.23 0Z" fill="#D6DCD0" stroke="#D6DCD0" stroke-linejoin="bevel"/>
<path d="M1390.57 188.622L1297.63 0L1286.96 199.289L1390.57 188.622Z" fill="#CFD5C8" stroke="#CFD5C8" stroke-linejoin="bevel"/>
<path d="M791.513 0H632.819L825.277 76.6222L791.513 0Z" fill="#D9DED3" stroke="#D9DED3" stroke-linejoin="bevel"/>
<path d="M502.559 151.289L417.259 233.422L467.017 381.155L502.559 151.289Z" fill="#E1E5DC" stroke="#E1E5DC" stroke-linejoin="bevel"/>
<path d="M467.017 381.156L326.095 596.622L467.017 585.956V381.156Z" fill="#E1E5DC" stroke="#E1E5DC" stroke-linejoin="bevel"/>
<path d="M274.559 263.644L417.259 233.422L336.757 115.733L274.559 263.644Z" fill="#DEE2D9" stroke="#DEE2D9" stroke-linejoin="bevel"/>
<path d="M465.24 806.933L507.89 960L609.717 778.489L465.24 806.933Z" fill="#E6E9E2" stroke="#E6E9E2" stroke-linejoin="bevel"/>
<path d="M1355.03 960L1563.3 808.711L1413.67 758.933L1355.03 960Z" fill="#D9DED3" stroke="#D9DED3" stroke-linejoin="bevel"/>
<path d="M1525.98 687.467L1706 594.844L1586.4 559.289L1525.98 687.467Z" fill="#D9DED3" stroke="#D9DED3" stroke-linejoin="bevel"/>
<path d="M294.107 361.6L326.095 596.622L467.017 381.156L294.107 361.6Z" fill="#E6E9E2" stroke="#E6E9E2" stroke-linejoin="bevel"/>
<path d="M465.24 806.933L306.547 960H507.89L465.24 806.933Z" fill="#D9DED3" stroke="#D9DED3" stroke-linejoin="bevel"/>
<path d="M1543.75 135.289L1401.23 0L1390.57 188.622L1543.75 135.289Z" fill="#DEE2D9" stroke="#DEE2D9" stroke-linejoin="bevel"/>
<path d="M1706 311.644L1600.62 236.978L1572.19 404.267L1706 311.644Z" fill="#D6DCD0" stroke="#D6DCD0" stroke-linejoin="bevel"/>
<path d="M1572.19 404.267L1600.62 236.978L1411.89 265.422L1572.19 404.267Z" fill="#CCD3C5" stroke="#CCD3C5" stroke-linejoin="bevel"/>
<path d="M1600.62 236.978L1543.75 135.289L1411.89 265.422L1600.62 236.978Z" fill="#DCE0D6" stroke="#DCE0D6" stroke-linejoin="bevel"/>
<path d="M274.559 263.644L294.107 361.6L417.259 233.422L274.559 263.644Z" fill="#E3E7DF" stroke="#E3E7DF" stroke-linejoin="bevel"/>
<path d="M417.259 233.422L294.107 361.6L467.017 381.156L417.259 233.422Z" fill="#DEE2D9" stroke="#DEE2D9" stroke-linejoin="bevel"/>
<path d="M101.827 708.8L297.661 742.578L326.095 596.622L101.827 708.8Z" fill="#DCE0D6" stroke="#DCE0D6" stroke-linejoin="bevel"/>
<path d="M326.095 596.622L297.661 742.578L486.565 696.356L326.095 596.622Z" fill="#D9DED3" stroke="#D9DED3" stroke-linejoin="bevel"/>
<path d="M1706 746.133V594.844L1525.98 687.467L1706 746.133Z" fill="#CCD3C5" stroke="#CCD3C5" stroke-linejoin="bevel"/>
<path d="M1586.4 559.289L1706 372.267L1572.19 404.267L1586.4 559.289Z" fill="#D1D7CB" stroke="#D1D7CB" stroke-linejoin="bevel"/>
<path d="M1355.03 960H1575.74L1563.3 808.711L1355.03 960Z" fill="#E3E7DF" stroke="#E3E7DF" stroke-linejoin="bevel"/>
<path d="M1563.3 808.711L1706 746.133L1525.98 687.467L1563.3 808.711Z" fill="#E6E9E2" stroke="#E6E9E2" stroke-linejoin="bevel"/>
<path d="M1706 594.844V372.267L1586.4 559.289L1706 594.844Z" fill="#E1E5DC" stroke="#E1E5DC" stroke-linejoin="bevel"/>
<path d="M1706 0H1566.85L1543.75 135.289L1706 0Z" fill="#D1D7CB" stroke="#D1D7CB" stroke-linejoin="bevel"/>
<path d="M336.757 115.733L417.259 233.422L502.559 151.289L336.757 115.733Z" fill="#DEE2D9" stroke="#DEE2D9" stroke-linejoin="bevel"/>
<path d="M294.107 361.6L192.458 504.178L326.095 596.622L294.107 361.6Z" fill="#DCE0D6" stroke="#DCE0D6" stroke-linejoin="bevel"/>
<path d="M158.694 837.156L294.107 838.933L297.661 742.578L158.694 837.156Z" fill="#D1D7CB" stroke="#D1D7CB" stroke-linejoin="bevel"/>
<path d="M297.661 742.578L294.107 838.933L465.24 806.933L297.661 742.578Z" fill="#DEE2D9" stroke="#DEE2D9" stroke-linejoin="bevel"/>
<path d="M1706 372.267V311.644L1572.19 404.267L1706 372.267Z" fill="#DCE0D6" stroke="#DCE0D6" stroke-linejoin="bevel"/>
<path d="M419.036 0L336.757 115.733L502.559 151.289L419.036 0Z" fill="#D6DCD0" stroke="#D6DCD0" stroke-linejoin="bevel"/>
<path d="M1706 824.711V746.133L1563.3 808.711L1706 824.711Z" fill="#CFD5C8" stroke="#CFD5C8" stroke-linejoin="bevel"/>
<path d="M632.819 0H419.036L502.559 151.289L632.819 0Z" fill="#E1E5DC" stroke="#E1E5DC" stroke-linejoin="bevel"/>
<path d="M180.019 457.6L192.458 504.178L294.107 361.6L180.019 457.6Z" fill="#CFD5C8" stroke="#CFD5C8" stroke-linejoin="bevel"/>
<path d="M1575.74 960L1706 824.711L1563.3 808.711L1575.74 960Z" fill="#D4DACD" stroke="#D4DACD" stroke-linejoin="bevel"/>
<path d="M1706 172.622L1543.75 135.289L1600.62 236.978L1706 172.622Z" fill="#D1D7CB" stroke="#D1D7CB" stroke-linejoin="bevel"/>
<path d="M1543.75 135.289L1566.85 0H1401.23L1543.75 135.289Z" fill="#CFD5C8" stroke="#CFD5C8" stroke-linejoin="bevel"/>
<path d="M146.254 960H306.547L294.107 838.933L146.254 960Z" fill="#E3E7DF" stroke="#E3E7DF" stroke-linejoin="bevel"/>
<path d="M294.107 838.933L306.547 960L465.24 806.933L294.107 838.933Z" fill="#CFD5C8" stroke="#CFD5C8" stroke-linejoin="bevel"/>
<path d="M158.694 334.756L180.019 457.6L294.107 361.6L158.694 334.756Z" fill="#CCD3C5" stroke="#CCD3C5" stroke-linejoin="bevel"/>
<path d="M101.827 708.8L158.694 837.156L297.661 742.578L101.827 708.8Z" fill="#DCE0D6" stroke="#DCE0D6" stroke-linejoin="bevel"/>
<path d="M158.694 334.756L294.107 361.6L274.559 263.644L158.694 334.756Z" fill="#DEE2D9" stroke="#DEE2D9" stroke-linejoin="bevel"/>
<path d="M1706 311.644V172.622L1600.62 236.978L1706 311.644Z" fill="#DEE2D9" stroke="#DEE2D9" stroke-linejoin="bevel"/>
<path d="M156.916 117.511L274.559 263.644L336.757 115.733L156.916 117.511Z" fill="#CCD3C5" stroke="#CCD3C5" stroke-linejoin="bevel"/>
<path d="M156.916 117.511L158.694 334.756L274.559 263.644L156.916 117.511Z" fill="#D1D7CB" stroke="#D1D7CB" stroke-linejoin="bevel"/>
<path d="M1575.74 960H1706V824.711L1575.74 960Z" fill="#DCE0D6" stroke="#DCE0D6" stroke-linejoin="bevel"/>
<path d="M419.036 0H301.216L336.757 115.733L419.036 0Z" fill="#CFD5C8" stroke="#CFD5C8" stroke-linejoin="bevel"/>
<path d="M101.827 708.8L326.095 596.622L192.458 504.178L101.827 708.8Z" fill="#CFD5C8" stroke="#CFD5C8" stroke-linejoin="bevel"/>
<path d="M101.827 708.8L192.458 504.178L0 601.956L101.827 708.8Z" fill="#D6DCD0" stroke="#D6DCD0" stroke-linejoin="bevel"/>
<path d="M0 601.956L192.458 504.178L180.019 457.6L0 601.956Z" fill="#DEE2D9" stroke="#DEE2D9" stroke-linejoin="bevel"/>
<path d="M1706 172.622V0L1543.75 135.289L1706 172.622Z" fill="#E1E5DC" stroke="#E1E5DC" stroke-linejoin="bevel"/>
<path d="M301.216 0L156.916 117.511L336.757 115.733L301.216 0Z" fill="#D4DACD" stroke="#D4DACD" stroke-linejoin="bevel"/>
<path d="M0 377.6V601.956L180.019 457.6L0 377.6Z" fill="#E3E7DF" stroke="#E3E7DF" stroke-linejoin="bevel"/>
<path d="M0 960H146.254L158.694 837.156L0 960Z" fill="#DCE0D6" stroke="#DCE0D6" stroke-linejoin="bevel"/>
<path d="M158.694 837.156L146.254 960L294.107 838.933L158.694 837.156Z" fill="#D4DACD" stroke="#D4DACD" stroke-linejoin="bevel"/>
<path d="M0 377.6L180.019 457.6L158.694 334.756L0 377.6Z" fill="#E3E7DF" stroke="#E3E7DF" stroke-linejoin="bevel"/>
<path d="M101.827 708.8L0 780.267L158.694 837.156L101.827 708.8Z" fill="#D6DCD0" stroke="#D6DCD0" stroke-linejoin="bevel"/>
<path d="M0 240.533V377.6L158.694 334.756L0 240.533Z" fill="#D6DCD0" stroke="#D6DCD0" stroke-linejoin="bevel"/>
<path d="M0 601.956V717.689L101.827 708.8L0 601.956Z" fill="#CCD3C5" stroke="#CCD3C5" stroke-linejoin="bevel"/>
<path d="M0 717.689V780.267L101.827 708.8L0 717.689Z" fill="#D6DCD0" stroke="#D6DCD0" stroke-linejoin="bevel"/>
<path d="M0 147.733V240.533L156.916 117.511L0 147.733Z" fill="#CFD5C8" stroke="#CFD5C8" stroke-linejoin="bevel"/>
<path d="M156.916 117.511L0 240.533L158.694 334.756L156.916 117.511Z" fill="#E3E7DF" stroke="#E3E7DF" stroke-linejoin="bevel"/>
<path d="M301.216 0H105.381L156.916 117.511L301.216 0Z" fill="#E3E7DF" stroke="#E3E7DF" stroke-linejoin="bevel"/>
<path d="M105.381 0L0 147.733L156.916 117.511L105.381 0Z" fill="#DCE0D6" stroke="#DCE0D6" stroke-linejoin="bevel"/>
<path d="M0 780.267V960L158.694 837.155L0 780.267Z" fill="#CFD5C8" stroke="#CFD5C8" stroke-linejoin="bevel"/>
<path d="M105.381 0H0V147.733L105.381 0Z" fill="#E6E9E2" stroke="#E6E9E2" stroke-linejoin="bevel"/>
</g>
<defs>
<clipPath id="clip0_7_139">
<rect width="1706" height="960" fill="white"/>
</clipPath>
</defs>
</svg>
