<svg width="200" height="200" viewBox="0 0 200 200" fill="none" xmlns="http://www.w3.org/2000/svg">
<path d="M149.375 0H49.7917C22.4062 0 0 22.4062 0 49.7917V149.375C0 176.76 22.4062 199.167 49.7917 199.167H149.375C176.76 199.167 199.167 176.76 199.167 149.375V49.7917C199.167 22.4062 176.76 0 149.375 0ZM64.7292 154.354H44.8125V79.6667H64.7292V154.354ZM54.7708 64.7292C49.2937 64.7292 44.8125 60.2479 44.8125 54.7708C44.8125 49.2937 49.2937 44.8125 54.7708 44.8125C60.2479 44.8125 64.7292 49.2937 64.7292 54.7708C64.7292 60.2479 60.2479 64.7292 54.7708 64.7292ZM154.354 154.354H134.437V117.01C134.437 104.562 129.458 99.0854 119.5 99.0854L99.5833 99.5833V154.354H79.6667V79.6667L119.5 78.6708C136.429 78.6708 154.354 88.6292 154.354 116.512V154.354Z" fill="#B2C89C"/>
</svg>
