<svg width="69" height="103" viewBox="0 0 69 103" fill="none" xmlns="http://www.w3.org/2000/svg">
<path fill-rule="evenodd" clip-rule="evenodd" d="M34.3333 0C53.2951 0 68.6667 15.3716 68.6667 34.3333C68.6667 40.0665 67.2654 45.4686 64.7775 50.222L34.3333 103L4.59434 51.502C1.66762 46.4481 0 40.5878 0 34.3333C0 15.3716 15.3716 0 34.3333 0ZM34.3333 9.80952C20.7892 9.80952 9.80952 20.7892 9.80952 34.3333C9.80952 38.228 10.708 41.9649 12.4082 45.3384L13.2322 46.8434L34.3333 83.381L55.5835 46.5861C57.72 42.8967 58.8571 38.7148 58.8571 34.3333C58.8571 20.7892 47.8775 9.80952 34.3333 9.80952ZM34.3333 19.619C42.4598 19.619 49.0476 26.2069 49.0476 34.3333C49.0476 42.4598 42.4598 49.0476 34.3333 49.0476C26.2069 49.0476 19.619 42.4598 19.619 34.3333C19.619 26.2069 26.2069 19.619 34.3333 19.619ZM34.3333 29.4286C31.6245 29.4286 29.4286 31.6245 29.4286 34.3333C29.4286 37.0422 31.6245 39.2381 34.3333 39.2381C37.0422 39.2381 39.2381 37.0422 39.2381 34.3333C39.2381 31.6245 37.0422 29.4286 34.3333 29.4286Z" fill="#B2C89C"/>
</svg>
