<svg width="808" height="213" viewBox="0 0 808 213" fill="none" xmlns="http://www.w3.org/2000/svg">
<mask id="path-1-outside-1_123_128" maskUnits="userSpaceOnUse" x="243" y="4" width="565" height="209" fill="black">
<rect fill="white" x="243" y="4" width="565" height="209"/>
<path d="M271.418 90.8333C271.949 90.8333 272.481 90.2993 273.012 89.2311C273.543 88.163 273.809 86.4082 273.809 83.9667V34.7556C273.809 33.077 273.619 32.0852 273.24 31.78C272.86 31.4748 271.532 31.3222 269.254 31.3222H260.942C256.539 31.3222 252.971 31.8181 250.238 32.81C247.581 33.7256 245.835 34.603 245 35.4422L247.277 24.4556V22.1667H313.094V24.4556L315.372 35.4422C314.537 34.603 312.753 33.7256 310.02 32.81C307.363 31.8181 303.833 31.3222 299.43 31.3222H291.231C288.878 31.3222 287.511 31.4748 287.132 31.78C286.752 32.0852 286.563 33.077 286.563 34.7556V83.9667C286.563 86.4082 286.828 88.163 287.36 89.2311C287.891 90.2993 288.422 90.8333 288.954 90.8333H271.418Z"/>
<path d="M323.308 90.8333C323.839 90.8333 324.371 90.2993 324.902 89.2311C325.433 88.163 325.699 86.4082 325.699 83.9667V29.0333C325.699 26.5919 325.433 24.8752 324.902 23.8833C324.371 22.8152 323.839 22.243 323.308 22.1667H387.417V24.4556L389.694 35.4422C387.796 34.603 384.456 33.7256 379.674 32.81C374.891 31.8181 369.122 31.3222 362.365 31.3222H343.121C340.844 31.3222 339.477 31.513 339.022 31.8944C338.642 32.1996 338.453 33.1533 338.453 34.7556V47.8022C338.453 49.4807 338.642 50.4726 339.022 50.7778C339.477 51.083 340.806 51.2356 343.007 51.2356H361.796C366.199 51.2356 369.729 51.0067 372.386 50.5489C375.119 50.0148 376.903 49.4807 377.738 48.9467C377.434 49.9385 377.093 51.1211 376.713 52.4944C376.333 53.8678 376.03 55.2411 375.802 56.6144C375.574 57.9878 375.46 59.2467 375.46 60.3911H343.007C340.806 60.3911 339.477 60.5437 339.022 60.8489C338.642 61.0778 338.453 62.0696 338.453 63.8244V78.0156C338.453 79.7704 338.642 80.8004 339.022 81.1056C339.402 81.4107 340.73 81.5633 343.007 81.5633H376.144C380.547 81.5633 384.077 81.0674 386.734 80.0756C389.466 79.0074 391.25 77.9774 392.085 76.9856L389.808 87.2856V90.8333H323.308Z"/>
<path d="M438.498 91.9778C425.441 91.9778 415.648 89.1548 409.12 83.5089C402.667 77.7867 399.441 68.7837 399.441 56.5C399.441 49.4044 400.769 43.2244 403.426 37.96C406.083 32.6193 410.296 28.4611 416.066 25.4856C421.835 22.51 429.313 21.0222 438.498 21.0222C445.71 21.0222 451.707 21.4037 456.49 22.1667C461.272 22.9296 464.498 23.6926 466.169 24.4556V26.7444L468.446 37.0444C467.004 36.0526 464.84 35.0226 461.955 33.9544C459.147 32.8863 455.768 32.0089 451.821 31.3222C447.873 30.5593 443.508 30.1778 438.726 30.1778C431.97 30.1778 426.656 31.3222 422.784 33.6111C418.912 35.8237 416.18 38.9137 414.585 42.8811C412.991 46.8485 412.194 51.3881 412.194 56.5C412.194 61.6119 412.991 66.1515 414.585 70.1189C416.256 74.01 419.216 77.1 423.467 79.3889C427.794 81.6015 433.981 82.7078 442.028 82.7078C448.557 82.7078 453.984 81.9448 458.312 80.4189C462.714 78.8167 465.713 77.2907 467.307 75.8411V79.2745L468.446 86.2556C467.155 87.4763 464.005 88.7352 458.995 90.0322C454.06 91.3293 447.228 91.9778 438.498 91.9778Z"/>
<path d="M485.494 130.308V23.3992C485.494 20.6877 484.915 18.8155 483.759 17.7826C481.5 15 465.698 15 463 15C463 7.64034 482.282 5 490.504 5C497.313 5 500.717 9.45453 500.717 18.3636V68.9128H530.831V24.9485L530.061 6.74308C534.428 6.0975 538.732 5.7747 542.972 5.7747C545.027 5.7747 546.055 6.8722 546.055 9.06718V116.17C546.055 118.881 546.569 120.818 547.597 121.98C548.753 123.013 562.302 127.755 565 127.755C565 135.115 549.267 134.569 541.045 134.569C534.236 134.569 530.831 130.114 530.831 121.205V81.6954H500.717V114.427L501.488 132.632C497.12 133.278 492.816 133.6 488.577 133.6C486.521 133.6 485.494 132.503 485.494 130.308Z"/>
<path d="M604.908 135.995C597.241 135.995 590.94 134.774 586.006 132.333C581.071 129.891 577.428 126.382 575.074 121.804C572.721 117.15 571.544 111.618 571.544 105.209V72.936C571.544 70.4945 571.279 68.7778 570.747 67.786C570.292 66.7178 569.798 66.1838 569.267 66.1838H586.575C586.044 66.2601 585.512 66.7941 584.981 67.786C584.525 68.7778 584.298 70.4945 584.298 72.936V104.98C584.298 110.321 585.133 114.594 586.803 117.798C588.473 120.926 590.864 123.215 593.977 124.665C597.089 126.038 600.771 126.725 605.022 126.725H606.275C609.539 126.725 612.424 126.343 614.929 125.58C617.434 124.817 619.559 123.597 621.305 121.918C623.051 120.24 624.342 118.027 625.177 115.28C626.088 112.457 626.544 109.024 626.544 104.98V72.936C626.544 70.4945 626.278 68.7778 625.746 67.786C625.291 66.7178 624.797 66.1838 624.266 66.1838H641.574C641.043 66.2601 640.512 66.8323 639.98 67.9004C639.525 68.8923 639.297 70.6089 639.297 73.0504V105.209C639.297 111.618 638.082 117.15 635.653 121.804C633.3 126.382 629.656 129.891 624.722 132.333C619.863 134.774 613.638 135.995 606.047 135.995H604.908Z"/>
<path d="M654.14 134.85C654.671 134.85 655.203 134.316 655.734 133.248C656.266 132.18 656.531 130.425 656.531 127.984V73.0504C656.531 70.6089 656.266 68.8923 655.734 67.9004C655.203 66.8323 654.671 66.2601 654.14 66.1838H671.79C671.714 66.4127 671.98 67.0993 672.587 68.2438C673.27 69.3882 674.485 71.0667 676.231 73.2793C676.762 73.966 677.863 75.3393 679.533 77.3993C681.279 79.4593 683.443 82.0152 686.024 85.0671C688.605 88.0426 691.376 91.3234 694.336 94.9093C697.373 98.419 700.409 102.005 703.446 105.667C706.558 109.253 709.519 112.686 712.328 115.967H712.555V73.0504C712.555 70.6089 712.29 68.8923 711.758 67.9004C711.227 66.8323 710.696 66.2601 710.164 66.1838H727.7C727.169 66.1838 726.637 66.7178 726.106 67.786C725.575 68.8541 725.309 70.6471 725.309 73.1649V127.984C725.309 130.425 725.575 132.18 726.106 133.248C726.637 134.316 727.169 134.85 727.7 134.85H712.783C712.859 134.622 712.555 133.935 711.872 132.79C711.189 131.57 709.974 129.891 708.228 127.755C707.09 126.305 705.42 124.283 703.218 121.689C701.093 119.019 698.663 116.005 695.93 112.648C693.198 109.215 690.275 105.629 687.162 101.89C684.126 98.1519 681.089 94.4134 678.053 90.6749C675.092 86.9364 672.283 83.4649 669.626 80.2604H669.285V127.984C669.285 130.425 669.55 132.18 670.082 133.248C670.613 134.316 671.145 134.85 671.676 134.85H654.14Z"/>
<path d="M762.046 134.85C762.578 134.85 763.109 134.316 763.64 133.248C764.172 132.18 764.437 130.425 764.437 127.984V78.7727C764.437 77.0941 764.248 76.1023 763.868 75.7971C763.489 75.4919 762.16 75.3393 759.883 75.3393H751.57C747.167 75.3393 743.599 75.8352 740.866 76.8271C738.209 77.7427 736.463 78.6201 735.628 79.4593L737.906 68.4726V66.1838H803.723V68.4726L806 79.4593C805.165 78.6201 803.381 77.7427 800.648 76.8271C797.991 75.8352 794.461 75.3393 790.058 75.3393H781.86C779.506 75.3393 778.14 75.4919 777.76 75.7971C777.381 76.1023 777.191 77.0941 777.191 78.7727V127.984C777.191 130.425 777.457 132.18 777.988 133.248C778.519 134.316 779.051 134.85 779.582 134.85H762.046Z"/>
<path d="M262.694 209.679C260.431 209.679 257.986 209.863 255.358 210.23C252.73 210.597 251.015 210.853 250.212 211L250.869 205.938C254.226 205.278 256.489 204.324 257.657 203.077C258.825 201.756 259.409 199.556 259.409 196.474L259.518 150.256C259.518 147.909 259.226 146.332 258.643 145.525C258.132 144.718 257.073 144.314 255.467 144.314C254.737 144.314 254.007 144.351 253.277 144.424C252.548 144.498 252.037 144.534 251.745 144.534L251.526 144.094L252.292 139.252C253.168 139.325 254.81 139.399 257.219 139.472C259.628 139.546 262.037 139.582 264.446 139.582C266.927 139.582 269.446 139.546 272 139.472C274.628 139.326 276.416 139.215 277.365 139.142C284.3 139.142 289.628 140.609 293.351 143.544C297.074 146.405 298.935 150.513 298.935 155.869C298.935 159.537 297.804 162.838 295.541 165.772C293.351 168.707 290.249 171.054 286.234 172.815C291.563 173.989 295.723 176.043 298.716 178.978C301.709 181.912 303.205 185.433 303.205 189.542C303.205 193.283 302.001 196.804 299.592 200.106C297.256 203.334 294.117 205.938 290.176 207.919C286.234 209.826 282 210.78 277.475 210.78C275.504 210.78 273.241 210.597 270.686 210.23C266.526 209.863 263.862 209.679 262.694 209.679ZM267.84 171.054C268.935 171.128 270.759 171.275 273.314 171.495C275.942 171.715 278.095 171.861 279.774 171.935C279.774 172.155 280.723 171.788 282.621 170.834C284.519 169.807 286.234 168.267 287.767 166.213C289.3 164.085 290.066 161.261 290.066 157.739C290.066 153.044 288.497 149.559 285.358 147.285C282.219 145.011 277.365 143.874 270.796 143.874C270.066 143.874 269.555 144.057 269.263 144.424C269.044 144.718 268.898 145.378 268.825 146.405C268.387 153.448 268.059 161.664 267.84 171.054ZM267.183 197.465C267.183 200.252 268.132 202.233 270.03 203.407C271.927 204.581 275.139 205.168 279.665 205.168C284.044 205.168 287.475 203.957 289.957 201.536C292.512 199.042 293.789 195.704 293.789 191.522C293.789 187.561 292.548 184.333 290.066 181.839C287.584 179.271 283.898 177.547 279.008 176.667L267.621 176.887L267.183 197.465Z"/>
<path d="M364.047 211C362.441 211 360.799 210.303 359.12 208.909C357.441 207.442 355.908 205.461 354.521 202.967L345.324 186.791H338.207L337.988 198.565C337.988 200.693 338.134 202.233 338.426 203.187C338.718 204.067 339.265 204.654 340.068 204.948C340.944 205.241 342.404 205.425 344.448 205.498L344.667 205.828L343.791 210.01C342.915 209.936 341.309 209.863 338.973 209.79C336.711 209.79 334.411 209.79 332.076 209.79C329.813 209.79 327.842 209.826 326.163 209.9C324.484 209.973 323.353 210.046 322.769 210.12L323.535 205.608C326.236 205.241 328.024 204.618 328.9 203.737C329.776 202.857 330.214 201.206 330.214 198.785L330.324 163.682C330.324 161.921 330.105 160.747 329.667 160.16C329.229 159.5 328.389 159.17 327.148 159.17L324.083 159.28L323.754 158.84L324.411 154.658C325.141 154.658 326.528 154.695 328.572 154.768C330.616 154.842 332.659 154.878 334.703 154.878C336.82 154.878 339.083 154.842 341.492 154.768C343.9 154.621 345.543 154.548 346.419 154.548C352.331 154.548 356.966 155.795 360.324 158.29C363.682 160.71 365.361 164.085 365.361 168.413C365.361 171.788 364.229 174.906 361.966 177.767C359.704 180.628 356.528 182.976 352.441 184.81L361.747 198.895C363.499 201.536 365.178 203.407 366.784 204.507C368.39 205.608 370.324 206.158 372.587 206.158L373.025 206.708L372.477 210.12L364.047 211ZM347.295 181.949C348.682 181.362 349.886 180.812 350.908 180.298C352.003 179.711 353.207 178.537 354.521 176.777C355.835 175.016 356.492 172.742 356.492 169.954C356.492 162.838 351.273 159.28 340.835 159.28C340.251 159.28 339.849 159.427 339.63 159.72C339.411 159.94 339.302 160.454 339.302 161.261C338.718 170.211 338.426 176.813 338.426 181.068L347.295 181.949Z"/>
<path d="M388.824 206.158C391.598 205.645 393.459 204.911 394.408 203.957C395.357 202.93 395.831 201.206 395.831 198.785L395.941 163.792C395.941 161.958 395.722 160.747 395.284 160.16C394.846 159.5 393.97 159.17 392.656 159.17L389.043 159.28L388.824 158.84L389.372 154.658C389.809 154.658 390.977 154.695 392.875 154.768C394.846 154.842 397.401 154.878 400.54 154.878C402.218 154.878 404.262 154.768 406.671 154.548C409.153 154.328 410.759 154.181 411.489 154.108L411.051 158.62C408.642 158.913 407.036 159.39 406.233 160.05C405.43 160.637 404.956 161.774 404.81 163.462C404.518 169.33 404.226 175.823 403.934 182.939C403.715 190.055 403.605 195.557 403.605 199.446C403.605 201.793 403.861 203.37 404.372 204.177C404.883 204.984 405.905 205.388 407.437 205.388C408.459 205.388 409.372 205.351 410.175 205.278C411.051 205.204 411.635 205.131 411.927 205.058L412.146 205.498L411.379 209.9C410.503 209.9 408.861 209.863 406.452 209.79C404.043 209.716 401.634 209.679 399.226 209.679C397.255 209.679 395.102 209.79 392.766 210.01C390.503 210.303 389.007 210.523 388.277 210.67L388.824 206.158Z"/>
<path d="M454.774 210.67C453.825 210.523 451.891 210.303 448.971 210.01C446.124 209.79 443.716 209.679 441.745 209.679C439.847 209.679 437.767 209.79 435.504 210.01C433.241 210.303 431.781 210.523 431.124 210.67L431.672 206.048C434.299 205.608 436.088 204.874 437.037 203.847C437.986 202.82 438.46 201.133 438.46 198.785L438.569 163.792C438.569 161.958 438.351 160.747 437.913 160.16C437.475 159.5 436.635 159.17 435.394 159.17C434.737 159.17 434.117 159.207 433.533 159.28C432.949 159.353 432.548 159.39 432.329 159.39L432.11 158.84L432.767 154.658C433.496 154.658 434.81 154.695 436.708 154.768C438.679 154.842 440.65 154.878 442.621 154.878C445.248 154.878 447.949 154.842 450.723 154.768C453.497 154.621 455.395 154.548 456.416 154.548C462.256 154.548 467.402 155.612 471.855 157.739C476.307 159.867 479.738 162.875 482.147 166.763C484.628 170.578 485.869 175.053 485.869 180.188C485.869 185.91 484.482 191.082 481.709 195.704C479.008 200.326 475.285 203.994 470.541 206.708C465.796 209.349 460.541 210.67 454.774 210.67ZM450.613 159.72C449.446 159.72 448.643 159.867 448.205 160.16C447.84 160.38 447.621 160.894 447.548 161.701C446.672 182.316 446.234 194.42 446.234 198.015C446.234 199.996 446.526 201.536 447.11 202.637C447.694 203.664 448.716 204.397 450.175 204.838C451.635 205.204 453.789 205.388 456.635 205.388C462.767 205.388 467.548 203.37 470.979 199.335C474.482 195.301 476.234 189.652 476.234 182.389C476.234 174.979 474.044 169.367 469.665 165.552C465.285 161.664 458.935 159.72 450.613 159.72Z"/>
<path d="M528.867 210.67C520.837 210.67 514.414 208.286 509.596 203.517C504.852 198.675 502.479 192.183 502.479 184.04C502.479 178.024 503.793 172.742 506.421 168.193C509.049 163.645 512.735 160.124 517.48 157.629C522.297 155.135 527.845 153.888 534.122 153.888C536.385 153.888 538.794 154.035 541.349 154.328C543.976 154.621 546.203 154.952 548.027 155.318C549.925 155.685 551.13 155.905 551.641 155.979L552.079 156.639C552.006 157.006 551.787 157.886 551.422 159.28C551.13 160.6 550.801 162.361 550.436 164.562C550.144 166.689 549.925 168.964 549.779 171.385L544.414 171.825C544.414 171.531 544.451 170.981 544.524 170.174C544.597 169.294 544.633 168.303 544.633 167.203C544.633 164.635 543.648 162.801 541.677 161.701C539.706 160.527 536.494 159.94 532.042 159.94C525.545 159.94 520.545 161.774 517.042 165.442C513.611 169.037 511.896 174.282 511.896 181.178C511.896 188.588 513.611 194.457 517.042 198.785C520.472 203.04 525.107 205.168 530.947 205.168C532.991 205.168 534.852 204.948 536.531 204.507C538.21 204.067 539.524 203.627 540.473 203.187C541.495 202.747 542.115 202.453 542.334 202.307V192.623C542.334 190.789 542.005 189.578 541.349 188.991C540.765 188.405 539.524 188.111 537.626 188.111H531.823L531.604 187.671L532.48 182.829C532.772 182.829 534.122 182.866 536.531 182.939C539.013 183.012 541.531 183.049 544.086 183.049C545.765 183.049 547.407 183.012 549.013 182.939C550.692 182.792 551.75 182.682 552.188 182.609L552.626 185.03C551.458 185.91 550.655 187.267 550.217 189.102C549.852 190.936 549.67 194.09 549.67 198.565C549.67 201.866 549.852 204.361 550.217 206.048L549.67 206.928C549.159 207.149 547.954 207.552 546.057 208.139C544.232 208.726 541.786 209.276 538.721 209.79C535.655 210.376 532.37 210.67 528.867 210.67Z"/>
<path d="M574.131 205.938C576.831 205.645 578.656 204.984 579.605 203.957C580.554 202.93 581.029 201.17 581.029 198.675L581.138 163.792C581.138 161.958 580.919 160.747 580.481 160.16C580.043 159.5 579.167 159.17 577.853 159.17L574.897 159.28L574.678 158.84L575.335 154.658C576.211 154.658 577.926 154.695 580.481 154.768C583.036 154.842 585.81 154.878 588.802 154.878C600.992 154.878 610.007 154.548 615.846 153.888L616.175 154.438C616.029 155.245 615.7 157.079 615.19 159.94C614.679 162.801 614.314 165.882 614.095 169.184L608.839 169.624C608.839 169.33 608.876 168.854 608.949 168.193C609.022 167.46 609.058 166.726 609.058 165.993C609.058 164.085 608.766 162.765 608.182 162.031C607.671 161.224 606.54 160.71 604.788 160.49C603.109 160.197 600.153 160.05 595.919 160.05C593.948 160.05 592.598 160.124 591.868 160.27C591.138 160.344 590.664 160.6 590.445 161.041C590.226 161.407 590.08 162.141 590.007 163.241L589.35 178.868L598.328 178.978C599.642 178.978 601.576 178.868 604.131 178.647C606.686 178.354 608.365 178.171 609.168 178.097L609.606 178.647L608.292 184.37C607.489 184.37 605.883 184.333 603.474 184.26C601.138 184.186 598.656 184.15 596.029 184.15C593.985 184.15 591.686 184.333 589.131 184.7C588.912 190.275 588.802 195.301 588.802 199.776C588.802 201.463 588.912 202.637 589.131 203.297C589.423 203.957 590.007 204.397 590.883 204.618C591.832 204.838 593.364 204.948 595.481 204.948C600.226 204.948 603.62 204.728 605.664 204.287C607.708 203.847 609.131 202.967 609.934 201.646C610.81 200.253 611.503 197.905 612.014 194.604L616.832 194.163L617.27 194.714C617.051 195.521 616.649 197.428 616.065 200.436C615.555 203.37 615.153 206.452 614.861 209.679L614.204 210.23C612.233 210.156 608.146 210.046 601.941 209.9C595.737 209.753 590.7 209.679 586.832 209.679C583.839 209.679 581.065 209.79 578.51 210.01C575.955 210.303 574.313 210.486 573.583 210.56L574.131 205.938Z"/>
<path d="M691.064 207.303C692.772 207.038 693.933 206.532 694.546 205.784C695.203 204.992 695.531 203.649 695.531 201.756L695.597 174.026C695.597 172.617 695.422 171.671 695.071 171.187C694.765 170.702 694.13 170.46 693.166 170.46C692.728 170.46 692.29 170.482 691.852 170.526C691.414 170.57 691.108 170.592 690.933 170.592L690.801 170.328L691.261 167.423C691.787 167.467 692.772 167.511 694.217 167.555C695.663 167.599 697.13 167.621 698.619 167.621C699.801 167.621 701.137 167.555 702.626 167.423C704.159 167.247 705.166 167.115 705.648 167.027L705.385 169.998C703.94 170.174 702.933 170.46 702.363 170.856C701.838 171.253 701.509 171.715 701.378 172.243C701.29 172.771 701.181 174.07 701.05 176.138C700.787 179.88 700.59 184.15 700.458 188.947C700.327 193.745 700.261 197.971 700.261 201.624C700.261 203.209 700.393 204.353 700.655 205.058C700.918 205.718 701.4 206.158 702.101 206.378C702.845 206.598 704.093 206.708 705.845 206.708C708.517 206.708 710.466 206.488 711.692 206.048C712.962 205.608 713.904 204.75 714.517 203.473C715.174 202.197 715.765 200.15 716.291 197.333L719.181 197.003L719.378 197.333C719.247 198.037 718.962 199.622 718.524 202.087C718.13 204.552 717.78 207.149 717.473 209.878L717.145 210.274C715.875 210.186 713.247 210.054 709.261 209.878C705.32 209.746 702.057 209.679 699.473 209.679C697.414 209.679 695.531 209.768 693.823 209.944C692.159 210.12 691.108 210.252 690.67 210.34L691.064 207.303Z"/>
<path d="M729.153 207.303C730.905 207.171 732.131 206.95 732.832 206.642C733.577 206.334 734.037 205.828 734.212 205.124C734.431 204.375 734.54 203.099 734.54 201.294V179.44C731.781 179.528 729.92 179.682 728.956 179.902C727.993 180.122 727.27 180.65 726.788 181.487C726.35 182.279 725.978 183.797 725.672 186.042L722.584 186.24C722.671 185.668 722.803 184.414 722.978 182.477C723.197 180.496 723.328 178.559 723.372 176.667L723.898 176.204L728.562 176.733H745.314L750.11 176.204L750.635 176.667C750.679 178.603 750.789 180.518 750.964 182.411C751.139 184.304 751.27 185.514 751.358 186.042L748.336 186.24C747.986 183.951 747.57 182.389 747.088 181.553C746.65 180.672 745.971 180.122 745.051 179.902C744.175 179.682 742.467 179.528 739.927 179.44C739.708 181.553 739.511 185.074 739.336 190.004C739.161 194.89 739.073 199.402 739.073 203.539C739.073 204.816 739.314 205.718 739.796 206.246C740.278 206.774 741.066 207.038 742.161 207.038C742.949 207.038 743.584 207.016 744.066 206.972C744.591 206.928 744.92 206.906 745.051 206.906L745.248 207.104L744.789 209.878C744.175 209.878 743.037 209.834 741.372 209.746C739.708 209.701 738.088 209.679 736.511 209.679C734.934 209.679 733.38 209.701 731.847 209.746C730.314 209.834 729.263 209.9 728.693 209.944L729.153 207.303Z"/>
<path d="M774.984 210.274C774.414 210.186 773.254 210.054 771.502 209.878C769.794 209.746 768.349 209.679 767.166 209.679C766.027 209.679 764.779 209.746 763.422 209.878C762.064 210.054 761.188 210.186 760.794 210.274L761.122 207.501C762.699 207.237 763.772 206.796 764.341 206.18C764.911 205.564 765.195 204.552 765.195 203.143L765.261 182.147C765.261 181.046 765.13 180.32 764.867 179.968C764.604 179.572 764.1 179.374 763.356 179.374C762.962 179.374 762.59 179.396 762.239 179.44C761.889 179.484 761.648 179.506 761.516 179.506L761.385 179.176L761.779 176.667C762.217 176.667 763.006 176.689 764.144 176.733C765.327 176.777 766.509 176.799 767.692 176.799C769.268 176.799 770.889 176.777 772.553 176.733C774.217 176.645 775.356 176.601 775.969 176.601C779.473 176.601 782.561 177.239 785.232 178.515C787.904 179.792 789.962 181.597 791.407 183.93C792.896 186.218 793.641 188.903 793.641 191.985C793.641 195.418 792.809 198.521 791.145 201.294C789.524 204.067 787.291 206.268 784.444 207.897C781.597 209.481 778.444 210.274 774.984 210.274ZM772.487 179.704C771.787 179.704 771.305 179.792 771.042 179.968C770.823 180.1 770.692 180.408 770.648 180.892C770.122 193.261 769.86 200.524 769.86 202.681C769.86 203.869 770.035 204.794 770.385 205.454C770.736 206.07 771.349 206.51 772.225 206.774C773.101 206.994 774.393 207.104 776.101 207.104C779.78 207.104 782.648 205.894 784.707 203.473C786.809 201.052 787.86 197.663 787.86 193.305C787.86 188.859 786.546 185.492 783.918 183.203C781.29 180.87 777.48 179.704 772.487 179.704Z"/>
</mask>
<path d="M271.418 90.8333C271.949 90.8333 272.481 90.2993 273.012 89.2311C273.543 88.163 273.809 86.4082 273.809 83.9667V34.7556C273.809 33.077 273.619 32.0852 273.24 31.78C272.86 31.4748 271.532 31.3222 269.254 31.3222H260.942C256.539 31.3222 252.971 31.8181 250.238 32.81C247.581 33.7256 245.835 34.603 245 35.4422L247.277 24.4556V22.1667H313.094V24.4556L315.372 35.4422C314.537 34.603 312.753 33.7256 310.02 32.81C307.363 31.8181 303.833 31.3222 299.43 31.3222H291.231C288.878 31.3222 287.511 31.4748 287.132 31.78C286.752 32.0852 286.563 33.077 286.563 34.7556V83.9667C286.563 86.4082 286.828 88.163 287.36 89.2311C287.891 90.2993 288.422 90.8333 288.954 90.8333H271.418Z" fill="white"/>
<path d="M323.308 90.8333C323.839 90.8333 324.371 90.2993 324.902 89.2311C325.433 88.163 325.699 86.4082 325.699 83.9667V29.0333C325.699 26.5919 325.433 24.8752 324.902 23.8833C324.371 22.8152 323.839 22.243 323.308 22.1667H387.417V24.4556L389.694 35.4422C387.796 34.603 384.456 33.7256 379.674 32.81C374.891 31.8181 369.122 31.3222 362.365 31.3222H343.121C340.844 31.3222 339.477 31.513 339.022 31.8944C338.642 32.1996 338.453 33.1533 338.453 34.7556V47.8022C338.453 49.4807 338.642 50.4726 339.022 50.7778C339.477 51.083 340.806 51.2356 343.007 51.2356H361.796C366.199 51.2356 369.729 51.0067 372.386 50.5489C375.119 50.0148 376.903 49.4807 377.738 48.9467C377.434 49.9385 377.093 51.1211 376.713 52.4944C376.333 53.8678 376.03 55.2411 375.802 56.6144C375.574 57.9878 375.46 59.2467 375.46 60.3911H343.007C340.806 60.3911 339.477 60.5437 339.022 60.8489C338.642 61.0778 338.453 62.0696 338.453 63.8244V78.0156C338.453 79.7704 338.642 80.8004 339.022 81.1056C339.402 81.4107 340.73 81.5633 343.007 81.5633H376.144C380.547 81.5633 384.077 81.0674 386.734 80.0756C389.466 79.0074 391.25 77.9774 392.085 76.9856L389.808 87.2856V90.8333H323.308Z" fill="white"/>
<path d="M438.498 91.9778C425.441 91.9778 415.648 89.1548 409.12 83.5089C402.667 77.7867 399.441 68.7837 399.441 56.5C399.441 49.4044 400.769 43.2244 403.426 37.96C406.083 32.6193 410.296 28.4611 416.066 25.4856C421.835 22.51 429.313 21.0222 438.498 21.0222C445.71 21.0222 451.707 21.4037 456.49 22.1667C461.272 22.9296 464.498 23.6926 466.169 24.4556V26.7444L468.446 37.0444C467.004 36.0526 464.84 35.0226 461.955 33.9544C459.147 32.8863 455.768 32.0089 451.821 31.3222C447.873 30.5593 443.508 30.1778 438.726 30.1778C431.97 30.1778 426.656 31.3222 422.784 33.6111C418.912 35.8237 416.18 38.9137 414.585 42.8811C412.991 46.8485 412.194 51.3881 412.194 56.5C412.194 61.6119 412.991 66.1515 414.585 70.1189C416.256 74.01 419.216 77.1 423.467 79.3889C427.794 81.6015 433.981 82.7078 442.028 82.7078C448.557 82.7078 453.984 81.9448 458.312 80.4189C462.714 78.8167 465.713 77.2907 467.307 75.8411V79.2745L468.446 86.2556C467.155 87.4763 464.005 88.7352 458.995 90.0322C454.06 91.3293 447.228 91.9778 438.498 91.9778Z" fill="white"/>
<path d="M485.494 130.308V23.3992C485.494 20.6877 484.915 18.8155 483.759 17.7826C481.5 15 465.698 15 463 15C463 7.64034 482.282 5 490.504 5C497.313 5 500.717 9.45453 500.717 18.3636V68.9128H530.831V24.9485L530.061 6.74308C534.428 6.0975 538.732 5.7747 542.972 5.7747C545.027 5.7747 546.055 6.8722 546.055 9.06718V116.17C546.055 118.881 546.569 120.818 547.597 121.98C548.753 123.013 562.302 127.755 565 127.755C565 135.115 549.267 134.569 541.045 134.569C534.236 134.569 530.831 130.114 530.831 121.205V81.6954H500.717V114.427L501.488 132.632C497.12 133.278 492.816 133.6 488.577 133.6C486.521 133.6 485.494 132.503 485.494 130.308Z" fill="white"/>
<path d="M604.908 135.995C597.241 135.995 590.94 134.774 586.006 132.333C581.071 129.891 577.428 126.382 575.074 121.804C572.721 117.15 571.544 111.618 571.544 105.209V72.936C571.544 70.4945 571.279 68.7778 570.747 67.786C570.292 66.7178 569.798 66.1838 569.267 66.1838H586.575C586.044 66.2601 585.512 66.7941 584.981 67.786C584.525 68.7778 584.298 70.4945 584.298 72.936V104.98C584.298 110.321 585.133 114.594 586.803 117.798C588.473 120.926 590.864 123.215 593.977 124.665C597.089 126.038 600.771 126.725 605.022 126.725H606.275C609.539 126.725 612.424 126.343 614.929 125.58C617.434 124.817 619.559 123.597 621.305 121.918C623.051 120.24 624.342 118.027 625.177 115.28C626.088 112.457 626.544 109.024 626.544 104.98V72.936C626.544 70.4945 626.278 68.7778 625.746 67.786C625.291 66.7178 624.797 66.1838 624.266 66.1838H641.574C641.043 66.2601 640.512 66.8323 639.98 67.9004C639.525 68.8923 639.297 70.6089 639.297 73.0504V105.209C639.297 111.618 638.082 117.15 635.653 121.804C633.3 126.382 629.656 129.891 624.722 132.333C619.863 134.774 613.638 135.995 606.047 135.995H604.908Z" fill="white"/>
<path d="M654.14 134.85C654.671 134.85 655.203 134.316 655.734 133.248C656.266 132.18 656.531 130.425 656.531 127.984V73.0504C656.531 70.6089 656.266 68.8923 655.734 67.9004C655.203 66.8323 654.671 66.2601 654.14 66.1838H671.79C671.714 66.4127 671.98 67.0993 672.587 68.2438C673.27 69.3882 674.485 71.0667 676.231 73.2793C676.762 73.966 677.863 75.3393 679.533 77.3993C681.279 79.4593 683.443 82.0152 686.024 85.0671C688.605 88.0426 691.376 91.3234 694.336 94.9093C697.373 98.419 700.409 102.005 703.446 105.667C706.558 109.253 709.519 112.686 712.328 115.967H712.555V73.0504C712.555 70.6089 712.29 68.8923 711.758 67.9004C711.227 66.8323 710.696 66.2601 710.164 66.1838H727.7C727.169 66.1838 726.637 66.7178 726.106 67.786C725.575 68.8541 725.309 70.6471 725.309 73.1649V127.984C725.309 130.425 725.575 132.18 726.106 133.248C726.637 134.316 727.169 134.85 727.7 134.85H712.783C712.859 134.622 712.555 133.935 711.872 132.79C711.189 131.57 709.974 129.891 708.228 127.755C707.09 126.305 705.42 124.283 703.218 121.689C701.093 119.019 698.663 116.005 695.93 112.648C693.198 109.215 690.275 105.629 687.162 101.89C684.126 98.1519 681.089 94.4134 678.053 90.6749C675.092 86.9364 672.283 83.4649 669.626 80.2604H669.285V127.984C669.285 130.425 669.55 132.18 670.082 133.248C670.613 134.316 671.145 134.85 671.676 134.85H654.14Z" fill="white"/>
<path d="M762.046 134.85C762.578 134.85 763.109 134.316 763.64 133.248C764.172 132.18 764.437 130.425 764.437 127.984V78.7727C764.437 77.0941 764.248 76.1023 763.868 75.7971C763.489 75.4919 762.16 75.3393 759.883 75.3393H751.57C747.167 75.3393 743.599 75.8352 740.866 76.8271C738.209 77.7427 736.463 78.6201 735.628 79.4593L737.906 68.4726V66.1838H803.723V68.4726L806 79.4593C805.165 78.6201 803.381 77.7427 800.648 76.8271C797.991 75.8352 794.461 75.3393 790.058 75.3393H781.86C779.506 75.3393 778.14 75.4919 777.76 75.7971C777.381 76.1023 777.191 77.0941 777.191 78.7727V127.984C777.191 130.425 777.457 132.18 777.988 133.248C778.519 134.316 779.051 134.85 779.582 134.85H762.046Z" fill="white"/>
<path d="M262.694 209.679C260.431 209.679 257.986 209.863 255.358 210.23C252.73 210.597 251.015 210.853 250.212 211L250.869 205.938C254.226 205.278 256.489 204.324 257.657 203.077C258.825 201.756 259.409 199.556 259.409 196.474L259.518 150.256C259.518 147.909 259.226 146.332 258.643 145.525C258.132 144.718 257.073 144.314 255.467 144.314C254.737 144.314 254.007 144.351 253.277 144.424C252.548 144.498 252.037 144.534 251.745 144.534L251.526 144.094L252.292 139.252C253.168 139.325 254.81 139.399 257.219 139.472C259.628 139.546 262.037 139.582 264.446 139.582C266.927 139.582 269.446 139.546 272 139.472C274.628 139.326 276.416 139.215 277.365 139.142C284.3 139.142 289.628 140.609 293.351 143.544C297.074 146.405 298.935 150.513 298.935 155.869C298.935 159.537 297.804 162.838 295.541 165.772C293.351 168.707 290.249 171.054 286.234 172.815C291.563 173.989 295.723 176.043 298.716 178.978C301.709 181.912 303.205 185.433 303.205 189.542C303.205 193.283 302.001 196.804 299.592 200.106C297.256 203.334 294.117 205.938 290.176 207.919C286.234 209.826 282 210.78 277.475 210.78C275.504 210.78 273.241 210.597 270.686 210.23C266.526 209.863 263.862 209.679 262.694 209.679ZM267.84 171.054C268.935 171.128 270.759 171.275 273.314 171.495C275.942 171.715 278.095 171.861 279.774 171.935C279.774 172.155 280.723 171.788 282.621 170.834C284.519 169.807 286.234 168.267 287.767 166.213C289.3 164.085 290.066 161.261 290.066 157.739C290.066 153.044 288.497 149.559 285.358 147.285C282.219 145.011 277.365 143.874 270.796 143.874C270.066 143.874 269.555 144.057 269.263 144.424C269.044 144.718 268.898 145.378 268.825 146.405C268.387 153.448 268.059 161.664 267.84 171.054ZM267.183 197.465C267.183 200.252 268.132 202.233 270.03 203.407C271.927 204.581 275.139 205.168 279.665 205.168C284.044 205.168 287.475 203.957 289.957 201.536C292.512 199.042 293.789 195.704 293.789 191.522C293.789 187.561 292.548 184.333 290.066 181.839C287.584 179.271 283.898 177.547 279.008 176.667L267.621 176.887L267.183 197.465Z" fill="white"/>
<path d="M364.047 211C362.441 211 360.799 210.303 359.12 208.909C357.441 207.442 355.908 205.461 354.521 202.967L345.324 186.791H338.207L337.988 198.565C337.988 200.693 338.134 202.233 338.426 203.187C338.718 204.067 339.265 204.654 340.068 204.948C340.944 205.241 342.404 205.425 344.448 205.498L344.667 205.828L343.791 210.01C342.915 209.936 341.309 209.863 338.973 209.79C336.711 209.79 334.411 209.79 332.076 209.79C329.813 209.79 327.842 209.826 326.163 209.9C324.484 209.973 323.353 210.046 322.769 210.12L323.535 205.608C326.236 205.241 328.024 204.618 328.9 203.737C329.776 202.857 330.214 201.206 330.214 198.785L330.324 163.682C330.324 161.921 330.105 160.747 329.667 160.16C329.229 159.5 328.389 159.17 327.148 159.17L324.083 159.28L323.754 158.84L324.411 154.658C325.141 154.658 326.528 154.695 328.572 154.768C330.616 154.842 332.659 154.878 334.703 154.878C336.82 154.878 339.083 154.842 341.492 154.768C343.9 154.621 345.543 154.548 346.419 154.548C352.331 154.548 356.966 155.795 360.324 158.29C363.682 160.71 365.361 164.085 365.361 168.413C365.361 171.788 364.229 174.906 361.966 177.767C359.704 180.628 356.528 182.976 352.441 184.81L361.747 198.895C363.499 201.536 365.178 203.407 366.784 204.507C368.39 205.608 370.324 206.158 372.587 206.158L373.025 206.708L372.477 210.12L364.047 211ZM347.295 181.949C348.682 181.362 349.886 180.812 350.908 180.298C352.003 179.711 353.207 178.537 354.521 176.777C355.835 175.016 356.492 172.742 356.492 169.954C356.492 162.838 351.273 159.28 340.835 159.28C340.251 159.28 339.849 159.427 339.63 159.72C339.411 159.94 339.302 160.454 339.302 161.261C338.718 170.211 338.426 176.813 338.426 181.068L347.295 181.949Z" fill="white"/>
<path d="M388.824 206.158C391.598 205.645 393.459 204.911 394.408 203.957C395.357 202.93 395.831 201.206 395.831 198.785L395.941 163.792C395.941 161.958 395.722 160.747 395.284 160.16C394.846 159.5 393.97 159.17 392.656 159.17L389.043 159.28L388.824 158.84L389.372 154.658C389.809 154.658 390.977 154.695 392.875 154.768C394.846 154.842 397.401 154.878 400.54 154.878C402.218 154.878 404.262 154.768 406.671 154.548C409.153 154.328 410.759 154.181 411.489 154.108L411.051 158.62C408.642 158.913 407.036 159.39 406.233 160.05C405.43 160.637 404.956 161.774 404.81 163.462C404.518 169.33 404.226 175.823 403.934 182.939C403.715 190.055 403.605 195.557 403.605 199.446C403.605 201.793 403.861 203.37 404.372 204.177C404.883 204.984 405.905 205.388 407.437 205.388C408.459 205.388 409.372 205.351 410.175 205.278C411.051 205.204 411.635 205.131 411.927 205.058L412.146 205.498L411.379 209.9C410.503 209.9 408.861 209.863 406.452 209.79C404.043 209.716 401.634 209.679 399.226 209.679C397.255 209.679 395.102 209.79 392.766 210.01C390.503 210.303 389.007 210.523 388.277 210.67L388.824 206.158Z" fill="white"/>
<path d="M454.774 210.67C453.825 210.523 451.891 210.303 448.971 210.01C446.124 209.79 443.716 209.679 441.745 209.679C439.847 209.679 437.767 209.79 435.504 210.01C433.241 210.303 431.781 210.523 431.124 210.67L431.672 206.048C434.299 205.608 436.088 204.874 437.037 203.847C437.986 202.82 438.46 201.133 438.46 198.785L438.569 163.792C438.569 161.958 438.351 160.747 437.913 160.16C437.475 159.5 436.635 159.17 435.394 159.17C434.737 159.17 434.117 159.207 433.533 159.28C432.949 159.353 432.548 159.39 432.329 159.39L432.11 158.84L432.767 154.658C433.496 154.658 434.81 154.695 436.708 154.768C438.679 154.842 440.65 154.878 442.621 154.878C445.248 154.878 447.949 154.842 450.723 154.768C453.497 154.621 455.395 154.548 456.416 154.548C462.256 154.548 467.402 155.612 471.855 157.739C476.307 159.867 479.738 162.875 482.147 166.763C484.628 170.578 485.869 175.053 485.869 180.188C485.869 185.91 484.482 191.082 481.709 195.704C479.008 200.326 475.285 203.994 470.541 206.708C465.796 209.349 460.541 210.67 454.774 210.67ZM450.613 159.72C449.446 159.72 448.643 159.867 448.205 160.16C447.84 160.38 447.621 160.894 447.548 161.701C446.672 182.316 446.234 194.42 446.234 198.015C446.234 199.996 446.526 201.536 447.11 202.637C447.694 203.664 448.716 204.397 450.175 204.838C451.635 205.204 453.789 205.388 456.635 205.388C462.767 205.388 467.548 203.37 470.979 199.335C474.482 195.301 476.234 189.652 476.234 182.389C476.234 174.979 474.044 169.367 469.665 165.552C465.285 161.664 458.935 159.72 450.613 159.72Z" fill="white"/>
<path d="M528.867 210.67C520.837 210.67 514.414 208.286 509.596 203.517C504.852 198.675 502.479 192.183 502.479 184.04C502.479 178.024 503.793 172.742 506.421 168.193C509.049 163.645 512.735 160.124 517.48 157.629C522.297 155.135 527.845 153.888 534.122 153.888C536.385 153.888 538.794 154.035 541.349 154.328C543.976 154.621 546.203 154.952 548.027 155.318C549.925 155.685 551.13 155.905 551.641 155.979L552.079 156.639C552.006 157.006 551.787 157.886 551.422 159.28C551.13 160.6 550.801 162.361 550.436 164.562C550.144 166.689 549.925 168.964 549.779 171.385L544.414 171.825C544.414 171.531 544.451 170.981 544.524 170.174C544.597 169.294 544.633 168.303 544.633 167.203C544.633 164.635 543.648 162.801 541.677 161.701C539.706 160.527 536.494 159.94 532.042 159.94C525.545 159.94 520.545 161.774 517.042 165.442C513.611 169.037 511.896 174.282 511.896 181.178C511.896 188.588 513.611 194.457 517.042 198.785C520.472 203.04 525.107 205.168 530.947 205.168C532.991 205.168 534.852 204.948 536.531 204.507C538.21 204.067 539.524 203.627 540.473 203.187C541.495 202.747 542.115 202.453 542.334 202.307V192.623C542.334 190.789 542.005 189.578 541.349 188.991C540.765 188.405 539.524 188.111 537.626 188.111H531.823L531.604 187.671L532.48 182.829C532.772 182.829 534.122 182.866 536.531 182.939C539.013 183.012 541.531 183.049 544.086 183.049C545.765 183.049 547.407 183.012 549.013 182.939C550.692 182.792 551.75 182.682 552.188 182.609L552.626 185.03C551.458 185.91 550.655 187.267 550.217 189.102C549.852 190.936 549.67 194.09 549.67 198.565C549.67 201.866 549.852 204.361 550.217 206.048L549.67 206.928C549.159 207.149 547.954 207.552 546.057 208.139C544.232 208.726 541.786 209.276 538.721 209.79C535.655 210.376 532.37 210.67 528.867 210.67Z" fill="white"/>
<path d="M574.131 205.938C576.831 205.645 578.656 204.984 579.605 203.957C580.554 202.93 581.029 201.17 581.029 198.675L581.138 163.792C581.138 161.958 580.919 160.747 580.481 160.16C580.043 159.5 579.167 159.17 577.853 159.17L574.897 159.28L574.678 158.84L575.335 154.658C576.211 154.658 577.926 154.695 580.481 154.768C583.036 154.842 585.81 154.878 588.802 154.878C600.992 154.878 610.007 154.548 615.846 153.888L616.175 154.438C616.029 155.245 615.7 157.079 615.19 159.94C614.679 162.801 614.314 165.882 614.095 169.184L608.839 169.624C608.839 169.33 608.876 168.854 608.949 168.193C609.022 167.46 609.058 166.726 609.058 165.993C609.058 164.085 608.766 162.765 608.182 162.031C607.671 161.224 606.54 160.71 604.788 160.49C603.109 160.197 600.153 160.05 595.919 160.05C593.948 160.05 592.598 160.124 591.868 160.27C591.138 160.344 590.664 160.6 590.445 161.041C590.226 161.407 590.08 162.141 590.007 163.241L589.35 178.868L598.328 178.978C599.642 178.978 601.576 178.868 604.131 178.647C606.686 178.354 608.365 178.171 609.168 178.097L609.606 178.647L608.292 184.37C607.489 184.37 605.883 184.333 603.474 184.26C601.138 184.186 598.656 184.15 596.029 184.15C593.985 184.15 591.686 184.333 589.131 184.7C588.912 190.275 588.802 195.301 588.802 199.776C588.802 201.463 588.912 202.637 589.131 203.297C589.423 203.957 590.007 204.397 590.883 204.618C591.832 204.838 593.364 204.948 595.481 204.948C600.226 204.948 603.62 204.728 605.664 204.287C607.708 203.847 609.131 202.967 609.934 201.646C610.81 200.253 611.503 197.905 612.014 194.604L616.832 194.163L617.27 194.714C617.051 195.521 616.649 197.428 616.065 200.436C615.555 203.37 615.153 206.452 614.861 209.679L614.204 210.23C612.233 210.156 608.146 210.046 601.941 209.9C595.737 209.753 590.7 209.679 586.832 209.679C583.839 209.679 581.065 209.79 578.51 210.01C575.955 210.303 574.313 210.486 573.583 210.56L574.131 205.938Z" fill="white"/>
<path d="M691.064 207.303C692.772 207.038 693.933 206.532 694.546 205.784C695.203 204.992 695.531 203.649 695.531 201.756L695.597 174.026C695.597 172.617 695.422 171.671 695.071 171.187C694.765 170.702 694.13 170.46 693.166 170.46C692.728 170.46 692.29 170.482 691.852 170.526C691.414 170.57 691.108 170.592 690.933 170.592L690.801 170.328L691.261 167.423C691.787 167.467 692.772 167.511 694.217 167.555C695.663 167.599 697.13 167.621 698.619 167.621C699.801 167.621 701.137 167.555 702.626 167.423C704.159 167.247 705.166 167.115 705.648 167.027L705.385 169.998C703.94 170.174 702.933 170.46 702.363 170.856C701.838 171.253 701.509 171.715 701.378 172.243C701.29 172.771 701.181 174.07 701.05 176.138C700.787 179.88 700.59 184.15 700.458 188.947C700.327 193.745 700.261 197.971 700.261 201.624C700.261 203.209 700.393 204.353 700.655 205.058C700.918 205.718 701.4 206.158 702.101 206.378C702.845 206.598 704.093 206.708 705.845 206.708C708.517 206.708 710.466 206.488 711.692 206.048C712.962 205.608 713.904 204.75 714.517 203.473C715.174 202.197 715.765 200.15 716.291 197.333L719.181 197.003L719.378 197.333C719.247 198.037 718.962 199.622 718.524 202.087C718.13 204.552 717.78 207.149 717.473 209.878L717.145 210.274C715.875 210.186 713.247 210.054 709.261 209.878C705.32 209.746 702.057 209.679 699.473 209.679C697.414 209.679 695.531 209.768 693.823 209.944C692.159 210.12 691.108 210.252 690.67 210.34L691.064 207.303Z" fill="white"/>
<path d="M729.153 207.303C730.905 207.171 732.131 206.95 732.832 206.642C733.577 206.334 734.037 205.828 734.212 205.124C734.431 204.375 734.54 203.099 734.54 201.294V179.44C731.781 179.528 729.92 179.682 728.956 179.902C727.993 180.122 727.27 180.65 726.788 181.487C726.35 182.279 725.978 183.797 725.672 186.042L722.584 186.24C722.671 185.668 722.803 184.414 722.978 182.477C723.197 180.496 723.328 178.559 723.372 176.667L723.898 176.204L728.562 176.733H745.314L750.11 176.204L750.635 176.667C750.679 178.603 750.789 180.518 750.964 182.411C751.139 184.304 751.27 185.514 751.358 186.042L748.336 186.24C747.986 183.951 747.57 182.389 747.088 181.553C746.65 180.672 745.971 180.122 745.051 179.902C744.175 179.682 742.467 179.528 739.927 179.44C739.708 181.553 739.511 185.074 739.336 190.004C739.161 194.89 739.073 199.402 739.073 203.539C739.073 204.816 739.314 205.718 739.796 206.246C740.278 206.774 741.066 207.038 742.161 207.038C742.949 207.038 743.584 207.016 744.066 206.972C744.591 206.928 744.92 206.906 745.051 206.906L745.248 207.104L744.789 209.878C744.175 209.878 743.037 209.834 741.372 209.746C739.708 209.701 738.088 209.679 736.511 209.679C734.934 209.679 733.38 209.701 731.847 209.746C730.314 209.834 729.263 209.9 728.693 209.944L729.153 207.303Z" fill="white"/>
<path d="M774.984 210.274C774.414 210.186 773.254 210.054 771.502 209.878C769.794 209.746 768.349 209.679 767.166 209.679C766.027 209.679 764.779 209.746 763.422 209.878C762.064 210.054 761.188 210.186 760.794 210.274L761.122 207.501C762.699 207.237 763.772 206.796 764.341 206.18C764.911 205.564 765.195 204.552 765.195 203.143L765.261 182.147C765.261 181.046 765.13 180.32 764.867 179.968C764.604 179.572 764.1 179.374 763.356 179.374C762.962 179.374 762.59 179.396 762.239 179.44C761.889 179.484 761.648 179.506 761.516 179.506L761.385 179.176L761.779 176.667C762.217 176.667 763.006 176.689 764.144 176.733C765.327 176.777 766.509 176.799 767.692 176.799C769.268 176.799 770.889 176.777 772.553 176.733C774.217 176.645 775.356 176.601 775.969 176.601C779.473 176.601 782.561 177.239 785.232 178.515C787.904 179.792 789.962 181.597 791.407 183.93C792.896 186.218 793.641 188.903 793.641 191.985C793.641 195.418 792.809 198.521 791.145 201.294C789.524 204.067 787.291 206.268 784.444 207.897C781.597 209.481 778.444 210.274 774.984 210.274ZM772.487 179.704C771.787 179.704 771.305 179.792 771.042 179.968C770.823 180.1 770.692 180.408 770.648 180.892C770.122 193.261 769.86 200.524 769.86 202.681C769.86 203.869 770.035 204.794 770.385 205.454C770.736 206.07 771.349 206.51 772.225 206.774C773.101 206.994 774.393 207.104 776.101 207.104C779.78 207.104 782.648 205.894 784.707 203.473C786.809 201.052 787.86 197.663 787.86 193.305C787.86 188.859 786.546 185.492 783.918 183.203C781.29 180.87 777.48 179.704 772.487 179.704Z" fill="white"/>
<path d="M271.418 90.8333C271.949 90.8333 272.481 90.2993 273.012 89.2311C273.543 88.163 273.809 86.4082 273.809 83.9667V34.7556C273.809 33.077 273.619 32.0852 273.24 31.78C272.86 31.4748 271.532 31.3222 269.254 31.3222H260.942C256.539 31.3222 252.971 31.8181 250.238 32.81C247.581 33.7256 245.835 34.603 245 35.4422L247.277 24.4556V22.1667H313.094V24.4556L315.372 35.4422C314.537 34.603 312.753 33.7256 310.02 32.81C307.363 31.8181 303.833 31.3222 299.43 31.3222H291.231C288.878 31.3222 287.511 31.4748 287.132 31.78C286.752 32.0852 286.563 33.077 286.563 34.7556V83.9667C286.563 86.4082 286.828 88.163 287.36 89.2311C287.891 90.2993 288.422 90.8333 288.954 90.8333H271.418Z" stroke="white" stroke-width="2" mask="url(#path-1-outside-1_123_128)"/>
<path d="M323.308 90.8333C323.839 90.8333 324.371 90.2993 324.902 89.2311C325.433 88.163 325.699 86.4082 325.699 83.9667V29.0333C325.699 26.5919 325.433 24.8752 324.902 23.8833C324.371 22.8152 323.839 22.243 323.308 22.1667H387.417V24.4556L389.694 35.4422C387.796 34.603 384.456 33.7256 379.674 32.81C374.891 31.8181 369.122 31.3222 362.365 31.3222H343.121C340.844 31.3222 339.477 31.513 339.022 31.8944C338.642 32.1996 338.453 33.1533 338.453 34.7556V47.8022C338.453 49.4807 338.642 50.4726 339.022 50.7778C339.477 51.083 340.806 51.2356 343.007 51.2356H361.796C366.199 51.2356 369.729 51.0067 372.386 50.5489C375.119 50.0148 376.903 49.4807 377.738 48.9467C377.434 49.9385 377.093 51.1211 376.713 52.4944C376.333 53.8678 376.03 55.2411 375.802 56.6144C375.574 57.9878 375.46 59.2467 375.46 60.3911H343.007C340.806 60.3911 339.477 60.5437 339.022 60.8489C338.642 61.0778 338.453 62.0696 338.453 63.8244V78.0156C338.453 79.7704 338.642 80.8004 339.022 81.1056C339.402 81.4107 340.73 81.5633 343.007 81.5633H376.144C380.547 81.5633 384.077 81.0674 386.734 80.0756C389.466 79.0074 391.25 77.9774 392.085 76.9856L389.808 87.2856V90.8333H323.308Z" stroke="white" stroke-width="2" mask="url(#path-1-outside-1_123_128)"/>
<path d="M438.498 91.9778C425.441 91.9778 415.648 89.1548 409.12 83.5089C402.667 77.7867 399.441 68.7837 399.441 56.5C399.441 49.4044 400.769 43.2244 403.426 37.96C406.083 32.6193 410.296 28.4611 416.066 25.4856C421.835 22.51 429.313 21.0222 438.498 21.0222C445.71 21.0222 451.707 21.4037 456.49 22.1667C461.272 22.9296 464.498 23.6926 466.169 24.4556V26.7444L468.446 37.0444C467.004 36.0526 464.84 35.0226 461.955 33.9544C459.147 32.8863 455.768 32.0089 451.821 31.3222C447.873 30.5593 443.508 30.1778 438.726 30.1778C431.97 30.1778 426.656 31.3222 422.784 33.6111C418.912 35.8237 416.18 38.9137 414.585 42.8811C412.991 46.8485 412.194 51.3881 412.194 56.5C412.194 61.6119 412.991 66.1515 414.585 70.1189C416.256 74.01 419.216 77.1 423.467 79.3889C427.794 81.6015 433.981 82.7078 442.028 82.7078C448.557 82.7078 453.984 81.9448 458.312 80.4189C462.714 78.8167 465.713 77.2907 467.307 75.8411V79.2745L468.446 86.2556C467.155 87.4763 464.005 88.7352 458.995 90.0322C454.06 91.3293 447.228 91.9778 438.498 91.9778Z" stroke="white" stroke-width="2" mask="url(#path-1-outside-1_123_128)"/>
<path d="M485.494 130.308V23.3992C485.494 20.6877 484.915 18.8155 483.759 17.7826C481.5 15 465.698 15 463 15C463 7.64034 482.282 5 490.504 5C497.313 5 500.717 9.45453 500.717 18.3636V68.9128H530.831V24.9485L530.061 6.74308C534.428 6.0975 538.732 5.7747 542.972 5.7747C545.027 5.7747 546.055 6.8722 546.055 9.06718V116.17C546.055 118.881 546.569 120.818 547.597 121.98C548.753 123.013 562.302 127.755 565 127.755C565 135.115 549.267 134.569 541.045 134.569C534.236 134.569 530.831 130.114 530.831 121.205V81.6954H500.717V114.427L501.488 132.632C497.12 133.278 492.816 133.6 488.577 133.6C486.521 133.6 485.494 132.503 485.494 130.308Z" stroke="white" stroke-width="2" mask="url(#path-1-outside-1_123_128)"/>
<path d="M604.908 135.995C597.241 135.995 590.94 134.774 586.006 132.333C581.071 129.891 577.428 126.382 575.074 121.804C572.721 117.15 571.544 111.618 571.544 105.209V72.936C571.544 70.4945 571.279 68.7778 570.747 67.786C570.292 66.7178 569.798 66.1838 569.267 66.1838H586.575C586.044 66.2601 585.512 66.7941 584.981 67.786C584.525 68.7778 584.298 70.4945 584.298 72.936V104.98C584.298 110.321 585.133 114.594 586.803 117.798C588.473 120.926 590.864 123.215 593.977 124.665C597.089 126.038 600.771 126.725 605.022 126.725H606.275C609.539 126.725 612.424 126.343 614.929 125.58C617.434 124.817 619.559 123.597 621.305 121.918C623.051 120.24 624.342 118.027 625.177 115.28C626.088 112.457 626.544 109.024 626.544 104.98V72.936C626.544 70.4945 626.278 68.7778 625.746 67.786C625.291 66.7178 624.797 66.1838 624.266 66.1838H641.574C641.043 66.2601 640.512 66.8323 639.98 67.9004C639.525 68.8923 639.297 70.6089 639.297 73.0504V105.209C639.297 111.618 638.082 117.15 635.653 121.804C633.3 126.382 629.656 129.891 624.722 132.333C619.863 134.774 613.638 135.995 606.047 135.995H604.908Z" stroke="white" stroke-width="2" mask="url(#path-1-outside-1_123_128)"/>
<path d="M654.14 134.85C654.671 134.85 655.203 134.316 655.734 133.248C656.266 132.18 656.531 130.425 656.531 127.984V73.0504C656.531 70.6089 656.266 68.8923 655.734 67.9004C655.203 66.8323 654.671 66.2601 654.14 66.1838H671.79C671.714 66.4127 671.98 67.0993 672.587 68.2438C673.27 69.3882 674.485 71.0667 676.231 73.2793C676.762 73.966 677.863 75.3393 679.533 77.3993C681.279 79.4593 683.443 82.0152 686.024 85.0671C688.605 88.0426 691.376 91.3234 694.336 94.9093C697.373 98.419 700.409 102.005 703.446 105.667C706.558 109.253 709.519 112.686 712.328 115.967H712.555V73.0504C712.555 70.6089 712.29 68.8923 711.758 67.9004C711.227 66.8323 710.696 66.2601 710.164 66.1838H727.7C727.169 66.1838 726.637 66.7178 726.106 67.786C725.575 68.8541 725.309 70.6471 725.309 73.1649V127.984C725.309 130.425 725.575 132.18 726.106 133.248C726.637 134.316 727.169 134.85 727.7 134.85H712.783C712.859 134.622 712.555 133.935 711.872 132.79C711.189 131.57 709.974 129.891 708.228 127.755C707.09 126.305 705.42 124.283 703.218 121.689C701.093 119.019 698.663 116.005 695.93 112.648C693.198 109.215 690.275 105.629 687.162 101.89C684.126 98.1519 681.089 94.4134 678.053 90.6749C675.092 86.9364 672.283 83.4649 669.626 80.2604H669.285V127.984C669.285 130.425 669.55 132.18 670.082 133.248C670.613 134.316 671.145 134.85 671.676 134.85H654.14Z" stroke="white" stroke-width="2" mask="url(#path-1-outside-1_123_128)"/>
<path d="M762.046 134.85C762.578 134.85 763.109 134.316 763.64 133.248C764.172 132.18 764.437 130.425 764.437 127.984V78.7727C764.437 77.0941 764.248 76.1023 763.868 75.7971C763.489 75.4919 762.16 75.3393 759.883 75.3393H751.57C747.167 75.3393 743.599 75.8352 740.866 76.8271C738.209 77.7427 736.463 78.6201 735.628 79.4593L737.906 68.4726V66.1838H803.723V68.4726L806 79.4593C805.165 78.6201 803.381 77.7427 800.648 76.8271C797.991 75.8352 794.461 75.3393 790.058 75.3393H781.86C779.506 75.3393 778.14 75.4919 777.76 75.7971C777.381 76.1023 777.191 77.0941 777.191 78.7727V127.984C777.191 130.425 777.457 132.18 777.988 133.248C778.519 134.316 779.051 134.85 779.582 134.85H762.046Z" stroke="white" stroke-width="2" mask="url(#path-1-outside-1_123_128)"/>
<path d="M262.694 209.679C260.431 209.679 257.986 209.863 255.358 210.23C252.73 210.597 251.015 210.853 250.212 211L250.869 205.938C254.226 205.278 256.489 204.324 257.657 203.077C258.825 201.756 259.409 199.556 259.409 196.474L259.518 150.256C259.518 147.909 259.226 146.332 258.643 145.525C258.132 144.718 257.073 144.314 255.467 144.314C254.737 144.314 254.007 144.351 253.277 144.424C252.548 144.498 252.037 144.534 251.745 144.534L251.526 144.094L252.292 139.252C253.168 139.325 254.81 139.399 257.219 139.472C259.628 139.546 262.037 139.582 264.446 139.582C266.927 139.582 269.446 139.546 272 139.472C274.628 139.326 276.416 139.215 277.365 139.142C284.3 139.142 289.628 140.609 293.351 143.544C297.074 146.405 298.935 150.513 298.935 155.869C298.935 159.537 297.804 162.838 295.541 165.772C293.351 168.707 290.249 171.054 286.234 172.815C291.563 173.989 295.723 176.043 298.716 178.978C301.709 181.912 303.205 185.433 303.205 189.542C303.205 193.283 302.001 196.804 299.592 200.106C297.256 203.334 294.117 205.938 290.176 207.919C286.234 209.826 282 210.78 277.475 210.78C275.504 210.78 273.241 210.597 270.686 210.23C266.526 209.863 263.862 209.679 262.694 209.679ZM267.84 171.054C268.935 171.128 270.759 171.275 273.314 171.495C275.942 171.715 278.095 171.861 279.774 171.935C279.774 172.155 280.723 171.788 282.621 170.834C284.519 169.807 286.234 168.267 287.767 166.213C289.3 164.085 290.066 161.261 290.066 157.739C290.066 153.044 288.497 149.559 285.358 147.285C282.219 145.011 277.365 143.874 270.796 143.874C270.066 143.874 269.555 144.057 269.263 144.424C269.044 144.718 268.898 145.378 268.825 146.405C268.387 153.448 268.059 161.664 267.84 171.054ZM267.183 197.465C267.183 200.252 268.132 202.233 270.03 203.407C271.927 204.581 275.139 205.168 279.665 205.168C284.044 205.168 287.475 203.957 289.957 201.536C292.512 199.042 293.789 195.704 293.789 191.522C293.789 187.561 292.548 184.333 290.066 181.839C287.584 179.271 283.898 177.547 279.008 176.667L267.621 176.887L267.183 197.465Z" stroke="white" stroke-width="2" mask="url(#path-1-outside-1_123_128)"/>
<path d="M364.047 211C362.441 211 360.799 210.303 359.12 208.909C357.441 207.442 355.908 205.461 354.521 202.967L345.324 186.791H338.207L337.988 198.565C337.988 200.693 338.134 202.233 338.426 203.187C338.718 204.067 339.265 204.654 340.068 204.948C340.944 205.241 342.404 205.425 344.448 205.498L344.667 205.828L343.791 210.01C342.915 209.936 341.309 209.863 338.973 209.79C336.711 209.79 334.411 209.79 332.076 209.79C329.813 209.79 327.842 209.826 326.163 209.9C324.484 209.973 323.353 210.046 322.769 210.12L323.535 205.608C326.236 205.241 328.024 204.618 328.9 203.737C329.776 202.857 330.214 201.206 330.214 198.785L330.324 163.682C330.324 161.921 330.105 160.747 329.667 160.16C329.229 159.5 328.389 159.17 327.148 159.17L324.083 159.28L323.754 158.84L324.411 154.658C325.141 154.658 326.528 154.695 328.572 154.768C330.616 154.842 332.659 154.878 334.703 154.878C336.82 154.878 339.083 154.842 341.492 154.768C343.9 154.621 345.543 154.548 346.419 154.548C352.331 154.548 356.966 155.795 360.324 158.29C363.682 160.71 365.361 164.085 365.361 168.413C365.361 171.788 364.229 174.906 361.966 177.767C359.704 180.628 356.528 182.976 352.441 184.81L361.747 198.895C363.499 201.536 365.178 203.407 366.784 204.507C368.39 205.608 370.324 206.158 372.587 206.158L373.025 206.708L372.477 210.12L364.047 211ZM347.295 181.949C348.682 181.362 349.886 180.812 350.908 180.298C352.003 179.711 353.207 178.537 354.521 176.777C355.835 175.016 356.492 172.742 356.492 169.954C356.492 162.838 351.273 159.28 340.835 159.28C340.251 159.28 339.849 159.427 339.63 159.72C339.411 159.94 339.302 160.454 339.302 161.261C338.718 170.211 338.426 176.813 338.426 181.068L347.295 181.949Z" stroke="white" stroke-width="2" mask="url(#path-1-outside-1_123_128)"/>
<path d="M388.824 206.158C391.598 205.645 393.459 204.911 394.408 203.957C395.357 202.93 395.831 201.206 395.831 198.785L395.941 163.792C395.941 161.958 395.722 160.747 395.284 160.16C394.846 159.5 393.97 159.17 392.656 159.17L389.043 159.28L388.824 158.84L389.372 154.658C389.809 154.658 390.977 154.695 392.875 154.768C394.846 154.842 397.401 154.878 400.54 154.878C402.218 154.878 404.262 154.768 406.671 154.548C409.153 154.328 410.759 154.181 411.489 154.108L411.051 158.62C408.642 158.913 407.036 159.39 406.233 160.05C405.43 160.637 404.956 161.774 404.81 163.462C404.518 169.33 404.226 175.823 403.934 182.939C403.715 190.055 403.605 195.557 403.605 199.446C403.605 201.793 403.861 203.37 404.372 204.177C404.883 204.984 405.905 205.388 407.437 205.388C408.459 205.388 409.372 205.351 410.175 205.278C411.051 205.204 411.635 205.131 411.927 205.058L412.146 205.498L411.379 209.9C410.503 209.9 408.861 209.863 406.452 209.79C404.043 209.716 401.634 209.679 399.226 209.679C397.255 209.679 395.102 209.79 392.766 210.01C390.503 210.303 389.007 210.523 388.277 210.67L388.824 206.158Z" stroke="white" stroke-width="2" mask="url(#path-1-outside-1_123_128)"/>
<path d="M454.774 210.67C453.825 210.523 451.891 210.303 448.971 210.01C446.124 209.79 443.716 209.679 441.745 209.679C439.847 209.679 437.767 209.79 435.504 210.01C433.241 210.303 431.781 210.523 431.124 210.67L431.672 206.048C434.299 205.608 436.088 204.874 437.037 203.847C437.986 202.82 438.46 201.133 438.46 198.785L438.569 163.792C438.569 161.958 438.351 160.747 437.913 160.16C437.475 159.5 436.635 159.17 435.394 159.17C434.737 159.17 434.117 159.207 433.533 159.28C432.949 159.353 432.548 159.39 432.329 159.39L432.11 158.84L432.767 154.658C433.496 154.658 434.81 154.695 436.708 154.768C438.679 154.842 440.65 154.878 442.621 154.878C445.248 154.878 447.949 154.842 450.723 154.768C453.497 154.621 455.395 154.548 456.416 154.548C462.256 154.548 467.402 155.612 471.855 157.739C476.307 159.867 479.738 162.875 482.147 166.763C484.628 170.578 485.869 175.053 485.869 180.188C485.869 185.91 484.482 191.082 481.709 195.704C479.008 200.326 475.285 203.994 470.541 206.708C465.796 209.349 460.541 210.67 454.774 210.67ZM450.613 159.72C449.446 159.72 448.643 159.867 448.205 160.16C447.84 160.38 447.621 160.894 447.548 161.701C446.672 182.316 446.234 194.42 446.234 198.015C446.234 199.996 446.526 201.536 447.11 202.637C447.694 203.664 448.716 204.397 450.175 204.838C451.635 205.204 453.789 205.388 456.635 205.388C462.767 205.388 467.548 203.37 470.979 199.335C474.482 195.301 476.234 189.652 476.234 182.389C476.234 174.979 474.044 169.367 469.665 165.552C465.285 161.664 458.935 159.72 450.613 159.72Z" stroke="white" stroke-width="2" mask="url(#path-1-outside-1_123_128)"/>
<path d="M528.867 210.67C520.837 210.67 514.414 208.286 509.596 203.517C504.852 198.675 502.479 192.183 502.479 184.04C502.479 178.024 503.793 172.742 506.421 168.193C509.049 163.645 512.735 160.124 517.48 157.629C522.297 155.135 527.845 153.888 534.122 153.888C536.385 153.888 538.794 154.035 541.349 154.328C543.976 154.621 546.203 154.952 548.027 155.318C549.925 155.685 551.13 155.905 551.641 155.979L552.079 156.639C552.006 157.006 551.787 157.886 551.422 159.28C551.13 160.6 550.801 162.361 550.436 164.562C550.144 166.689 549.925 168.964 549.779 171.385L544.414 171.825C544.414 171.531 544.451 170.981 544.524 170.174C544.597 169.294 544.633 168.303 544.633 167.203C544.633 164.635 543.648 162.801 541.677 161.701C539.706 160.527 536.494 159.94 532.042 159.94C525.545 159.94 520.545 161.774 517.042 165.442C513.611 169.037 511.896 174.282 511.896 181.178C511.896 188.588 513.611 194.457 517.042 198.785C520.472 203.04 525.107 205.168 530.947 205.168C532.991 205.168 534.852 204.948 536.531 204.507C538.21 204.067 539.524 203.627 540.473 203.187C541.495 202.747 542.115 202.453 542.334 202.307V192.623C542.334 190.789 542.005 189.578 541.349 188.991C540.765 188.405 539.524 188.111 537.626 188.111H531.823L531.604 187.671L532.48 182.829C532.772 182.829 534.122 182.866 536.531 182.939C539.013 183.012 541.531 183.049 544.086 183.049C545.765 183.049 547.407 183.012 549.013 182.939C550.692 182.792 551.75 182.682 552.188 182.609L552.626 185.03C551.458 185.91 550.655 187.267 550.217 189.102C549.852 190.936 549.67 194.09 549.67 198.565C549.67 201.866 549.852 204.361 550.217 206.048L549.67 206.928C549.159 207.149 547.954 207.552 546.057 208.139C544.232 208.726 541.786 209.276 538.721 209.79C535.655 210.376 532.37 210.67 528.867 210.67Z" stroke="white" stroke-width="2" mask="url(#path-1-outside-1_123_128)"/>
<path d="M574.131 205.938C576.831 205.645 578.656 204.984 579.605 203.957C580.554 202.93 581.029 201.17 581.029 198.675L581.138 163.792C581.138 161.958 580.919 160.747 580.481 160.16C580.043 159.5 579.167 159.17 577.853 159.17L574.897 159.28L574.678 158.84L575.335 154.658C576.211 154.658 577.926 154.695 580.481 154.768C583.036 154.842 585.81 154.878 588.802 154.878C600.992 154.878 610.007 154.548 615.846 153.888L616.175 154.438C616.029 155.245 615.7 157.079 615.19 159.94C614.679 162.801 614.314 165.882 614.095 169.184L608.839 169.624C608.839 169.33 608.876 168.854 608.949 168.193C609.022 167.46 609.058 166.726 609.058 165.993C609.058 164.085 608.766 162.765 608.182 162.031C607.671 161.224 606.54 160.71 604.788 160.49C603.109 160.197 600.153 160.05 595.919 160.05C593.948 160.05 592.598 160.124 591.868 160.27C591.138 160.344 590.664 160.6 590.445 161.041C590.226 161.407 590.08 162.141 590.007 163.241L589.35 178.868L598.328 178.978C599.642 178.978 601.576 178.868 604.131 178.647C606.686 178.354 608.365 178.171 609.168 178.097L609.606 178.647L608.292 184.37C607.489 184.37 605.883 184.333 603.474 184.26C601.138 184.186 598.656 184.15 596.029 184.15C593.985 184.15 591.686 184.333 589.131 184.7C588.912 190.275 588.802 195.301 588.802 199.776C588.802 201.463 588.912 202.637 589.131 203.297C589.423 203.957 590.007 204.397 590.883 204.618C591.832 204.838 593.364 204.948 595.481 204.948C600.226 204.948 603.62 204.728 605.664 204.287C607.708 203.847 609.131 202.967 609.934 201.646C610.81 200.253 611.503 197.905 612.014 194.604L616.832 194.163L617.27 194.714C617.051 195.521 616.649 197.428 616.065 200.436C615.555 203.37 615.153 206.452 614.861 209.679L614.204 210.23C612.233 210.156 608.146 210.046 601.941 209.9C595.737 209.753 590.7 209.679 586.832 209.679C583.839 209.679 581.065 209.79 578.51 210.01C575.955 210.303 574.313 210.486 573.583 210.56L574.131 205.938Z" stroke="white" stroke-width="2" mask="url(#path-1-outside-1_123_128)"/>
<path d="M691.064 207.303C692.772 207.038 693.933 206.532 694.546 205.784C695.203 204.992 695.531 203.649 695.531 201.756L695.597 174.026C695.597 172.617 695.422 171.671 695.071 171.187C694.765 170.702 694.13 170.46 693.166 170.46C692.728 170.46 692.29 170.482 691.852 170.526C691.414 170.57 691.108 170.592 690.933 170.592L690.801 170.328L691.261 167.423C691.787 167.467 692.772 167.511 694.217 167.555C695.663 167.599 697.13 167.621 698.619 167.621C699.801 167.621 701.137 167.555 702.626 167.423C704.159 167.247 705.166 167.115 705.648 167.027L705.385 169.998C703.94 170.174 702.933 170.46 702.363 170.856C701.838 171.253 701.509 171.715 701.378 172.243C701.29 172.771 701.181 174.07 701.05 176.138C700.787 179.88 700.59 184.15 700.458 188.947C700.327 193.745 700.261 197.971 700.261 201.624C700.261 203.209 700.393 204.353 700.655 205.058C700.918 205.718 701.4 206.158 702.101 206.378C702.845 206.598 704.093 206.708 705.845 206.708C708.517 206.708 710.466 206.488 711.692 206.048C712.962 205.608 713.904 204.75 714.517 203.473C715.174 202.197 715.765 200.15 716.291 197.333L719.181 197.003L719.378 197.333C719.247 198.037 718.962 199.622 718.524 202.087C718.13 204.552 717.78 207.149 717.473 209.878L717.145 210.274C715.875 210.186 713.247 210.054 709.261 209.878C705.32 209.746 702.057 209.679 699.473 209.679C697.414 209.679 695.531 209.768 693.823 209.944C692.159 210.12 691.108 210.252 690.67 210.34L691.064 207.303Z" stroke="white" stroke-width="2" mask="url(#path-1-outside-1_123_128)"/>
<path d="M729.153 207.303C730.905 207.171 732.131 206.95 732.832 206.642C733.577 206.334 734.037 205.828 734.212 205.124C734.431 204.375 734.54 203.099 734.54 201.294V179.44C731.781 179.528 729.92 179.682 728.956 179.902C727.993 180.122 727.27 180.65 726.788 181.487C726.35 182.279 725.978 183.797 725.672 186.042L722.584 186.24C722.671 185.668 722.803 184.414 722.978 182.477C723.197 180.496 723.328 178.559 723.372 176.667L723.898 176.204L728.562 176.733H745.314L750.11 176.204L750.635 176.667C750.679 178.603 750.789 180.518 750.964 182.411C751.139 184.304 751.27 185.514 751.358 186.042L748.336 186.24C747.986 183.951 747.57 182.389 747.088 181.553C746.65 180.672 745.971 180.122 745.051 179.902C744.175 179.682 742.467 179.528 739.927 179.44C739.708 181.553 739.511 185.074 739.336 190.004C739.161 194.89 739.073 199.402 739.073 203.539C739.073 204.816 739.314 205.718 739.796 206.246C740.278 206.774 741.066 207.038 742.161 207.038C742.949 207.038 743.584 207.016 744.066 206.972C744.591 206.928 744.92 206.906 745.051 206.906L745.248 207.104L744.789 209.878C744.175 209.878 743.037 209.834 741.372 209.746C739.708 209.701 738.088 209.679 736.511 209.679C734.934 209.679 733.38 209.701 731.847 209.746C730.314 209.834 729.263 209.9 728.693 209.944L729.153 207.303Z" stroke="white" stroke-width="2" mask="url(#path-1-outside-1_123_128)"/>
<path d="M774.984 210.274C774.414 210.186 773.254 210.054 771.502 209.878C769.794 209.746 768.349 209.679 767.166 209.679C766.027 209.679 764.779 209.746 763.422 209.878C762.064 210.054 761.188 210.186 760.794 210.274L761.122 207.501C762.699 207.237 763.772 206.796 764.341 206.18C764.911 205.564 765.195 204.552 765.195 203.143L765.261 182.147C765.261 181.046 765.13 180.32 764.867 179.968C764.604 179.572 764.1 179.374 763.356 179.374C762.962 179.374 762.59 179.396 762.239 179.44C761.889 179.484 761.648 179.506 761.516 179.506L761.385 179.176L761.779 176.667C762.217 176.667 763.006 176.689 764.144 176.733C765.327 176.777 766.509 176.799 767.692 176.799C769.268 176.799 770.889 176.777 772.553 176.733C774.217 176.645 775.356 176.601 775.969 176.601C779.473 176.601 782.561 177.239 785.232 178.515C787.904 179.792 789.962 181.597 791.407 183.93C792.896 186.218 793.641 188.903 793.641 191.985C793.641 195.418 792.809 198.521 791.145 201.294C789.524 204.067 787.291 206.268 784.444 207.897C781.597 209.481 778.444 210.274 774.984 210.274ZM772.487 179.704C771.787 179.704 771.305 179.792 771.042 179.968C770.823 180.1 770.692 180.408 770.648 180.892C770.122 193.261 769.86 200.524 769.86 202.681C769.86 203.869 770.035 204.794 770.385 205.454C770.736 206.07 771.349 206.51 772.225 206.774C773.101 206.994 774.393 207.104 776.101 207.104C779.78 207.104 782.648 205.894 784.707 203.473C786.809 201.052 787.86 197.663 787.86 193.305C787.86 188.859 786.546 185.492 783.918 183.203C781.29 180.87 777.48 179.704 772.487 179.704Z" stroke="white" stroke-width="2" mask="url(#path-1-outside-1_123_128)"/>
<path d="M32 115V76.5L64 57.5" stroke="#19C873" stroke-width="9" stroke-linecap="round"/>
<path d="M146.5 58.5L179.5 77.5V114.5" stroke="#DB4437" stroke-width="9" stroke-linecap="round"/>
<path d="M139 185L106.5 204.5L72 185" stroke="#F4B400" stroke-width="9" stroke-linecap="round"/>
<path d="M106 97.5L66 74V28.5M106 97.5L146.5 74V28.5M106 97.5L104.5 54M146.5 28.5L106 5L66 28.5M146.5 28.5L104.5 54M66 28.5L104.5 54" stroke="#4F558E" stroke-width="9" stroke-linecap="square" stroke-linejoin="round"/>
<path d="M165 200.5L125 177V131.5M165 200.5L205.5 177V131.5M165 200.5L163.5 157M205.5 131.5L165 108L125 131.5M205.5 131.5L163.5 157M125 131.5L163.5 157" stroke="#4F558E" stroke-width="9" stroke-linecap="square" stroke-linejoin="round"/>
<path d="M45 200.5L5 177V131.5M45 200.5L85.5 177V131.5M45 200.5L43.5 157M85.5 131.5L45 108L5 131.5M85.5 131.5L43.5 157M5 131.5L43.5 157" stroke="#4F558E" stroke-width="9" stroke-linecap="square" stroke-linejoin="round"/>
</svg>
