<svg width="210" height="210" viewBox="0 0 210 210" fill="none" xmlns="http://www.w3.org/2000/svg">
<path d="M32 115V76.5L64 57.5" stroke="#19C873" stroke-width="9" stroke-linecap="round"/>
<path d="M146.5 58.5L179.5 77.5V114.5" stroke="#DB4437" stroke-width="9" stroke-linecap="round"/>
<path d="M139 185L106.5 204.5L72 185" stroke="#F4B400" stroke-width="9" stroke-linecap="round"/>
<path d="M106 97.5L66 74V28.5M106 97.5L146.5 74V28.5M106 97.5L104.5 54M146.5 28.5L106 5L66 28.5M146.5 28.5L104.5 54M66 28.5L104.5 54" stroke="#4F558E" stroke-width="9" stroke-linecap="square" stroke-linejoin="round"/>
<path d="M165 200.5L125 177V131.5M165 200.5L205.5 177V131.5M165 200.5L163.5 157M205.5 131.5L165 108L125 131.5M205.5 131.5L163.5 157M125 131.5L163.5 157" stroke="#4F558E" stroke-width="9" stroke-linecap="square" stroke-linejoin="round"/>
<path d="M45 200.5L5 177V131.5M45 200.5L85.5 177V131.5M45 200.5L43.5 157M85.5 131.5L45 108L5 131.5M85.5 131.5L43.5 157M5 131.5L43.5 157" stroke="#4F558E" stroke-width="9" stroke-linecap="square" stroke-linejoin="round"/>
</svg>
