<svg width="92" height="92" viewBox="0 0 92 92" fill="none" xmlns="http://www.w3.org/2000/svg">
<path d="M25.6798 37.6573L32.4062 30.9307C35.306 28.0309 36.4151 23.7784 35.2368 19.8505C34.2736 16.6393 33.5954 13.3045 33.2318 9.87603C32.8744 6.50623 29.9353 4.00049 26.5466 4.00049H10.8278C6.78576 4.00049 3.6719 7.49155 4.02772 11.5179C7.61183 52.0786 39.9214 84.3882 80.4821 87.9723C84.5085 88.3281 87.9995 85.2257 87.9995 81.1838V67.1706C87.9995 62.0545 85.4936 59.1256 82.124 58.7684C78.6955 58.4049 75.3607 57.7267 72.1495 56.7634C68.2214 55.5852 63.9691 56.6943 61.0691 59.594L54.3427 66.3204" stroke="#B2C89C" stroke-width="6.67" stroke-linecap="round" stroke-linejoin="round"/>
<path d="M17.2286 4C17.2286 9.97724 17.9696 15.7813 19.3647 21.3256C27.0926 52.0358 54.8909 74.7711 87.9995 74.7711" stroke="#B2C89C" stroke-width="6.67" stroke-linecap="round" stroke-linejoin="round"/>
</svg>
