<svg width="269" height="269" viewBox="0 0 269 269" fill="none" xmlns="http://www.w3.org/2000/svg">
<path fill-rule="evenodd" clip-rule="evenodd" d="M40.35 0H228.65C250.935 0 269 18.0654 269 40.3501V228.65C269 250.935 250.935 269 228.65 269H40.35C18.0653 269 0 250.935 0 228.65V40.3501C0 18.0654 18.0653 0 40.35 0ZM208.58 86.1641C216.054 86.1848 223.367 83.991 229.596 79.8594C224.32 87.0964 218.14 93.6292 211.207 99.2988C212.328 118.714 208.039 138.06 198.817 155.182C189.596 172.305 175.803 186.532 158.975 196.28C142.147 206.029 122.943 210.916 103.502 210.397C84.0615 209.879 65.146 203.975 48.8613 193.344C68.3055 193.467 87.4026 188.193 104.027 178.107C96.1558 177.937 88.5336 175.314 82.2236 170.605C75.9136 165.896 71.2301 159.335 68.8262 151.838C74.3988 152.927 80.1449 152.747 85.6387 151.312C77.3857 149.433 70.0017 144.839 64.6677 138.267C59.3337 131.695 56.3582 123.524 56.2168 115.061C61.464 117.562 67.217 118.82 73.0293 118.738C65.3279 113.4 59.882 105.393 57.7466 96.269C55.6111 87.145 56.9382 77.5532 61.4707 69.3516C70.7332 80.8113 82.3024 90.1946 95.4269 96.8928C108.551 103.591 122.938 107.454 137.652 108.23C135.981 100.219 136.954 91.8811 140.423 84.469C143.893 77.0569 149.673 70.9697 156.896 67.1216C164.119 63.2732 172.395 61.8713 180.483 63.126C188.57 64.3806 196.033 68.2241 201.75 74.0801C210.422 73.9014 218.769 70.748 225.393 65.1484C222.554 73.9778 216.571 81.4568 208.58 86.1641Z" fill="#B2C89C"/>
</svg>
